<?xml version="1.0" encoding="UTF-8" standalone="no"?>
<!-- Created with Inkscape (http://www.inkscape.org/) -->

<svg
   version="1.1"
   id="svg2"
   width="500"
   height="500."
   viewBox="0 0 2666.6667 2666.6667"
   sodipodi:docname="ramen-hero-img.eps"
   xmlns:inkscape="http://www.inkscape.org/namespaces/inkscape"
   xmlns:sodipodi="http://sodipodi.sourceforge.net/DTD/sodipodi-0.dtd"
   xmlns="http://www.w3.org/2000/svg"
   xmlns:svg="http://www.w3.org/2000/svg">
  <defs
     id="defs6">
    <clipPath
       clipPathUnits="userSpaceOnUse"
       id="clipPath50">
      <path
         d="m 6075.92,11164.8 c 0,0 -505.9,558 -174.42,574.5 174.42,8.7 120.3,-363.4 174.42,-574.5 z"
         id="path48" />
    </clipPath>
    <linearGradient
       x1="0"
       y1="0"
       x2="1"
       y2="0"
       gradientUnits="userSpaceOnUse"
       gradientTransform="matrix(287.021,0,0,-287.021,5788.9,11452.1)"
       spreadMethod="pad"
       id="linearGradient56">
      <stop
         style="stop-opacity:1;stop-color:#fee69a"
         offset="0"
         id="stop52" />
      <stop
         style="stop-opacity:1;stop-color:#ff9548"
         offset="1"
         id="stop54" />
    </linearGradient>
    <clipPath
       clipPathUnits="userSpaceOnUse"
       id="clipPath66">
      <path
         d="m 7875.8,9992.3 c 0,0 -798.26,533.8 -895.68,761.1 -97.41,227.3 -156.94,35.2 -181.3,-56.8 -24.35,-92 -119.06,-75.9 -194.83,163.6 -75.76,239.6 -246.24,342.4 -357.18,228.7 -110.95,-113.6 10.82,-435.6 59.53,-495.1 48.71,-59.6 308.48,-367.5 219.18,-420.5 -89.29,-53.1 -266.15,163.4 -346.84,-17.9 -80.7,-181.3 184.48,-385 414.49,-396.8 230.01,-11.8 538.49,-469.1 538.49,-469.1 l 465.42,338.2 z"
         id="path64" />
    </clipPath>
    <linearGradient
       x1="0"
       y1="0"
       x2="1"
       y2="0"
       gradientUnits="userSpaceOnUse"
       gradientTransform="matrix(995.088,-2109.09,-2109.09,-995.088,6371.98,11391.8)"
       spreadMethod="pad"
       id="linearGradient72">
      <stop
         style="stop-opacity:1;stop-color:#fee69a"
         offset="0"
         id="stop68" />
      <stop
         style="stop-opacity:1;stop-color:#ff9548"
         offset="1"
         id="stop70" />
    </linearGradient>
    <clipPath
       clipPathUnits="userSpaceOnUse"
       id="clipPath82">
      <path
         d="m 6019.51,10434.1 c 0,0 -379.61,385.6 -467.84,255.7 -88.23,-129.9 382.6,-336.9 467.84,-255.7 z"
         id="path80" />
    </clipPath>
    <linearGradient
       x1="0"
       y1="0"
       x2="1"
       y2="0"
       gradientUnits="userSpaceOnUse"
       gradientTransform="matrix(478.803,0,0,-478.803,5540.71,10566.1)"
       spreadMethod="pad"
       id="linearGradient88">
      <stop
         style="stop-opacity:1;stop-color:#fee69a"
         offset="0"
         id="stop84" />
      <stop
         style="stop-opacity:1;stop-color:#ff9548"
         offset="1"
         id="stop86" />
    </linearGradient>
    <clipPath
       clipPathUnits="userSpaceOnUse"
       id="clipPath110">
      <path
         d="M 12987.8,9609.7 H 11102 c -149.2,268.5 -195.5,610.5 -144.9,1045.3 24.9,212.9 -49.3,422.1 -203.5,574 -131.5,129.6 -304,200.2 -483.5,200.2 -30.2,0 -60.5,-2 -90.9,-6 -106,-14.1 -209.49,-39.1 -305.48,-73.6 -76.61,-15.8 -152.84,-38 -226.89,-65.9 -184.63,-70.4 -330.39,-217.6 -399.86,-403.9 -68.97,-185 -55.41,-389.9 37.14,-562.1 134.38,-251.3 224.67,-485.3 271.87,-708 H 8768 c 0,0 -166.74,271.7 108.24,511.1 28.15,24.5 51.64,48.2 70.81,71.3 168.1,202.7 2.82,361.6 -287.46,640.4 -323.38,310.5 -718.26,569.3 -647.09,802.2 26.83,87.8 86.66,105.7 153.26,105.7 22.89,0 46.58,-2.1 70,-4.2 23.43,-2.1 46.58,-4.3 68.41,-4.3 61.33,0 112.16,16.7 128.87,96.9 64.7,310.6 -465.79,336.4 -976.94,465.8 -549.58,139.2 -475.84,848.6 -308.71,848.6 3.65,0 7.37,-0.3 11.1,-1 20.04,-3.7 39.73,-5.5 58.65,-5.5 145.99,0 245.54,104.4 96.62,219 -167.2,128.6 -545.39,838.9 -206.78,838.9 2.04,0 4.13,0 6.22,0 349.37,-8.7 284.67,-392.5 439.94,-819.5 155.28,-427 842.04,-71 932.61,-588.5 85.51,-488.7 366.16,-891 647.7,-890.9 16.69,0 33.43,1.4 50.09,4.3 297.61,51.7 -25.88,414.1 142.33,517.6 14.94,9.2 29.57,13.5 44.23,13.5 150.31,0 302.83,-451.7 809.8,-699.3 173.3,-84.7 335.2,-105.3 498.8,-105.3 77.8,0 155.9,4.7 235.8,9.3 79.8,4.7 161.5,9.4 246.2,9.4 224.7,0 471.5,-32.8 766,-185.2 538,-278.2 849.9,-1108.4 983.4,-1556.2 52.8,-176.9 77.7,-294.1 77.7,-294.1"
         id="path108" />
    </clipPath>
    <linearGradient
       x1="0"
       y1="0"
       x2="1"
       y2="0"
       gradientUnits="userSpaceOnUse"
       gradientTransform="matrix(1652.22,-4280.75,-4280.75,-1652.22,9092.66,13615.2)"
       spreadMethod="pad"
       id="linearGradient116">
      <stop
         style="stop-opacity:1;stop-color:#fee69a"
         offset="0"
         id="stop112" />
      <stop
         style="stop-opacity:1;stop-color:#ff9548"
         offset="1"
         id="stop114" />
    </linearGradient>
    <clipPath
       clipPathUnits="userSpaceOnUse"
       id="clipPath126">
      <path
         d="m 7715.97,14129.3 c 0,0 -607.95,803.3 -226.44,912.3 317.02,90.5 161.74,-659.9 226.44,-912.3 z"
         id="path124" />
    </clipPath>
    <linearGradient
       x1="0"
       y1="0"
       x2="1"
       y2="0"
       gradientUnits="userSpaceOnUse"
       gradientTransform="matrix(625.841,-1552.09,-1552.09,-625.841,7307.81,15366.9)"
       spreadMethod="pad"
       id="linearGradient132">
      <stop
         style="stop-opacity:1;stop-color:#fee69a"
         offset="0"
         id="stop128" />
      <stop
         style="stop-opacity:1;stop-color:#ff9548"
         offset="1"
         id="stop130" />
    </linearGradient>
    <clipPath
       clipPathUnits="userSpaceOnUse"
       id="clipPath180">
      <path
         d="m 8504.58,10005.7 c -245.17,4.2 -485.1,-45.1 -715.61,-159.3 -173.92,-84.8 -342.61,-207.4 -505.01,-371.9 -170.78,222.1 -344.71,429.6 -519.68,617.1 -66.01,70.2 -75.44,172.9 -22,237.8 114.2,138.3 238.88,259.9 375.09,362.6 143.54,110 300.7,200.1 471.49,269.2 64.96,26.2 144.59,6.3 196.97,-53.4 186.5,-211.6 377.19,-447.4 573.12,-707.2 48.2,-63.9 97.44,-128.9 145.63,-194.9 z"
         id="path178" />
    </clipPath>
    <linearGradient
       x1="0"
       y1="0"
       x2="1"
       y2="0"
       gradientUnits="userSpaceOnUse"
       gradientTransform="matrix(1688.72,-2268.06,-2268.06,-1688.72,6900.48,11033.5)"
       spreadMethod="pad"
       id="linearGradient190">
      <stop
         style="stop-opacity:1;stop-color:#57a31a"
         offset="0"
         id="stop182" />
      <stop
         style="stop-opacity:1;stop-color:#57a31a"
         offset="0.118027"
         id="stop184" />
      <stop
         style="stop-opacity:1;stop-color:#387a1a"
         offset="0.620298"
         id="stop186" />
      <stop
         style="stop-opacity:1;stop-color:#387a1a"
         offset="1"
         id="stop188" />
    </linearGradient>
    <clipPath
       clipPathUnits="userSpaceOnUse"
       id="clipPath204">
      <path
         d="m 9423.29,9731.1 c -312.23,150.8 -623.41,239.9 -928.3,244.1 -245.18,4.2 -485.11,-45.1 -715.61,-159.3 -28.29,38.8 -57.63,77.6 -86.96,115.3 -176.03,230.5 -353.09,444.2 -534.36,638.1 -19.91,19.9 -33.53,44 -42.95,68.1 -3.15,8.4 -5.24,15.7 -7.34,24.1 -13.62,51.3 -4.19,105.8 28.29,145.6 234.7,283.9 515.49,497.7 846.58,631.8 37.72,15.7 80.68,14.7 119.44,0 28.29,-10.5 55.54,-28.3 77.53,-53.4 206.42,-233.7 418.05,-497.7 637.04,-790 2.1,-3.2 3.14,-5.3 3.14,-5.3 137.25,-184.4 277.65,-379.3 419.09,-584.6 59.73,-87 119.45,-176 180.22,-266.1 2.1,-3.2 3.14,-5.3 4.19,-8.4 z"
         id="path202" />
    </clipPath>
    <linearGradient
       x1="0"
       y1="0"
       x2="1"
       y2="0"
       gradientUnits="userSpaceOnUse"
       gradientTransform="matrix(1935.25,-2354.35,-2354.35,-1935.25,7020.98,11769.8)"
       spreadMethod="pad"
       id="linearGradient214">
      <stop
         style="stop-opacity:1;stop-color:#57a31a"
         offset="0"
         id="stop206" />
      <stop
         style="stop-opacity:1;stop-color:#57a31a"
         offset="0.268117"
         id="stop208" />
      <stop
         style="stop-opacity:1;stop-color:#387a1a"
         offset="0.873368"
         id="stop210" />
      <stop
         style="stop-opacity:1;stop-color:#387a1a"
         offset="1"
         id="stop212" />
    </linearGradient>
  </defs>
  <sodipodi:namedview
     id="namedview4"
     pagecolor="#ffffff"
     bordercolor="#000000"
     borderopacity="0.25"
     inkscape:showpageshadow="2"
     inkscape:pageopacity="0.0"
     inkscape:pagecheckerboard="0"
     inkscape:deskcolor="#d1d1d1" />
  <g
     id="g8"
     inkscape:groupmode="layer"
     inkscape:label="ink_ext_XXXXXX"
     transform="matrix(1.3333333,0,0,-1.3333333,0,2666.6667)">
    <g
       id="g10"
       transform="scale(0.1)">
      <path
         d="M 0,0 H 20000 V 20000 H 0 Z"
         style="fill:#7ad2fa;fill-opacity:0;fill-rule:nonzero;stroke:none"
         id="path12" />
      <path
         d="m 13396.5,9590.7 v -767 c 0,-199.1 -19.9,-396 -59.7,-587.8 -2.1,-9.4 -4.2,-17.8 -6.3,-27.2 -7.3,-40.9 -16.8,-80.7 -28.3,-120.5 -9.4,-35.6 -18.8,-72.3 -30.4,-107.9 -7.3,-24.1 -14.6,-47.2 -22,-71.3 -28.3,-89 -61.8,-176 -99.5,-261.9 -1.1,-2.1 -2.1,-4.2 -3.2,-6.3 -161.3,-365.6 -398.1,-702 -703,-990.1 -249.3,-235.8 -531.2,-427.5 -836.1,-571 -447.4,-213.8 -944,-326.9 -1459.5,-326.9 -492.44,0 -960.78,104.7 -1379.88,292.3 -140.4,61.8 -274.51,133.1 -402.34,213.7 -882.2,548 -1465.79,1493.1 -1465.79,2564.9 v 767 h 6496.01"
         style="fill:#ff3b40;fill-opacity:1;fill-rule:nonzero;stroke:none"
         id="path14" />
      <path
         d="m 12840.2,7947.8 c -24.1,5.2 -49.3,11.5 -75.5,18.9 -6.3,-17.8 -13.6,-33.6 -20.9,-50.3 -84.9,-27.3 -175,-53.5 -273.5,-77.6 1.1,0 2.1,-1 2.1,-1 99.5,-40.9 137.3,-162.4 75.4,-250.4 -432.7,-625.5 -2019,-2534.5 -4408.88,-1116.9 0,0 92.21,-97.5 227.36,-211.7 77.53,-64.9 168.69,-136.2 266.13,-196.9 0,0 33.53,-50.3 105.82,-120.5 185.46,-184.4 624.46,-510.3 1385.17,-484.1 1054,36.7 1449,425.4 1547.5,634.9 0,0 -23.1,-4.1 -62.9,-12.5 304.9,143.5 586.8,335.3 836.1,571 304.9,288.1 541.7,624.5 703,990.1 1.1,2.1 2.1,4.2 3.2,6.3 37.7,85.9 71.2,172.9 99.5,261.9 7.4,24.1 14.7,47.2 22,71.3 11.6,35.6 21,72.3 30.4,107.9 11.6,39.8 21,79.6 28.3,120.5 2.1,9.4 4.2,17.8 6.3,27.2 -83.8,-104.7 -255.7,-202.2 -496.6,-288.1"
         style="fill:#ce2929;fill-opacity:1;fill-rule:nonzero;stroke:none"
         id="path16" />
      <path
         d="m 11454,8405.7 c 198,-149.9 699.9,-435.9 1016.3,-566.9 -589.9,-144.6 -1412.4,-234.7 -2322.8,-234.7 -1793.79,0 -3248.06,350 -3248.06,780.6 0,18.9 3.14,37.7 8.38,55.5 v 691.6 c 35.62,-121.6 210.6,-234.7 487.2,-333.2 1.05,0 1.05,0 1.05,0 574.17,-201.2 1592.57,-335.3 2752.43,-335.3 405.5,0 794.2,16.8 1152.5,47.1 53.5,-33.5 104.8,-69.1 153,-104.7"
         style="fill:#ffffff;fill-opacity:1;fill-rule:nonzero;stroke:none"
         id="path18" />
      <path
         d="m 13396.5,9178.9 -1,-794.2 c 0,-162.4 -205.4,-312.2 -555.3,-436.9 -252.5,58.7 -599.4,192.8 -1040.5,482 0,0 -63.9,50.3 -160.3,113.1 516.6,58.7 952.4,147.8 1260.5,255.7 314.3,110 496.6,241 496.6,380.3"
         style="fill:#ffffff;fill-opacity:1;fill-rule:nonzero;stroke:none"
         id="path20" />
      <path
         d="m 12840.2,7947.8 c -110.1,-38.8 -233.7,-75.4 -369.9,-109 -316.4,131 -818.3,417 -1016.3,566.9 -48.2,35.6 -99.5,71.2 -153,104.7 116.3,9.5 229.5,20 338.4,32.5 96.4,-62.8 160.3,-113.1 160.3,-113.1 441.1,-289.2 788,-423.3 1040.5,-482"
         style="fill:#e0c3c5;fill-opacity:1;fill-rule:nonzero;stroke:none"
         id="path22" />
      <path
         d="m 11301,8510.4 c -224.2,144.6 -467.3,262 -467.3,262 213.8,118.4 592,-89.1 805.7,-229.5 -108.9,-12.5 -222.1,-23 -338.4,-32.5"
         style="fill:#ce2929;fill-opacity:1;fill-rule:nonzero;stroke:none"
         id="path24" />
      <path
         d="m 7140.42,8089.2 c 51.34,-30.3 110.01,-59.7 176.02,-86.9 -164.49,-61.8 -273.46,-79.6 -273.46,-79.6 l -58.67,159.2 c 51.33,-9.4 99.53,-8.4 156.11,7.3"
         style="fill:#ce2929;fill-opacity:1;fill-rule:nonzero;stroke:none"
         id="path26" />
      <path
         d="m 9102.85,8808 c 0,0 -395,-47.1 -782.67,-221.1 -96.39,14.7 -188.59,30.4 -277.65,47.2 621.32,366.7 1060.32,173.9 1060.32,173.9"
         style="fill:#ce2929;fill-opacity:1;fill-rule:nonzero;stroke:none"
         id="path28" />
      <path
         d="m 8320.18,8586.9 c -62.31,-26.5 -202.46,-72.5 -385.17,-198.9 -339.93,-235 -451.98,-323.9 -618.57,-385.7 -66.01,27.2 -124.68,56.6 -176.02,86.9 149.82,45.1 355.19,191.8 832.96,501.9 23.05,14.7 46.1,29.4 69.15,43 89.06,-16.8 181.26,-32.5 277.65,-47.2"
         style="fill:#e0c3c5;fill-opacity:1;fill-rule:nonzero;stroke:none"
         id="path30" />
      <path
         d="m 13396.5,9485.9 v -307 c 0,-139.3 -182.3,-270.3 -496.6,-380.3 -8.4,-3.2 -17.8,-6.3 -26.2,-8.4 -2.1,199.1 -16.8,341.6 -16.8,341.6 l 539.6,354.1"
         style="fill:#ce2929;fill-opacity:1;fill-rule:nonzero;stroke:none"
         id="path32" />
      <path
         d="m 13396.5,9178.9 v -373 c -1,-193.8 -20.9,-384.5 -59.7,-570 -83.8,-104.7 -255.7,-202.2 -496.6,-288.1 -24.1,5.2 -49.3,11.5 -75.5,18.9 92.2,252.5 110,580.4 109,823.5 8.4,2.1 17.8,5.2 26.2,8.4 314.3,110 496.6,241 496.6,380.3"
         style="fill:#e0c3c5;fill-opacity:1;fill-rule:nonzero;stroke:none"
         id="path34" />
      <path
         d="m 13396.5,8805.9 -1,-421.2 c 0,-51.3 -19.9,-100.6 -58.7,-148.8 38.8,185.5 58.7,376.2 59.7,570"
         style="fill:#e0c3c5;fill-opacity:1;fill-rule:nonzero;stroke:none"
         id="path36" />
      <path
         d="m 13396.5,9526.8 c 0,-395.4 -1454.2,-715.9 -3248,-715.9 -1793.83,0 -3248.01,320.5 -3248.01,715.9 0,395.3 1454.18,715.9 3248.01,715.9 1793.8,0 3248,-320.6 3248,-715.9"
         style="fill:#990b10;fill-opacity:1;fill-rule:nonzero;stroke:none"
         id="path38" />
      <path
         d="m 8200.19,6724.6 c -111.34,0 -298.85,136.3 -460.93,344.9 -195.41,251.6 -279.83,513 -188.56,583.9 15.57,12.1 35.26,17.8 58.16,17.8 111.35,0 298.86,-136.3 460.94,-344.9 195.41,-251.6 279.83,-513 188.56,-583.9 -15.57,-12.1 -35.27,-17.8 -58.17,-17.8"
         style="fill:#ff7680;fill-opacity:1;fill-rule:nonzero;stroke:none"
         id="path40" />
      <path
         d="m 8108.73,7494.2 c -38.05,0 -89.29,25.3 -133.37,69.4 -63.06,63 -87.6,140.7 -54.79,173.5 9.87,9.9 23.81,14.6 40.19,14.6 38.06,0 89.3,-25.3 133.38,-69.3 63.07,-63.1 87.6,-140.8 54.79,-173.6 -9.87,-9.9 -23.81,-14.6 -40.2,-14.6"
         style="fill:#ff7680;fill-opacity:1;fill-rule:nonzero;stroke:none"
         id="path42" />
      <g
         id="g44">
        <g
           id="g46"
           clip-path="url(#clipPath50)">
          <path
             d="m 6075.92,11164.8 c 0,0 -505.9,558 -174.42,574.5 174.42,8.7 120.3,-363.4 174.42,-574.5"
             style="fill:url(#linearGradient56);fill-opacity:1;fill-rule:nonzero;stroke:none"
             id="path58" />
        </g>
      </g>
      <g
         id="g60">
        <g
           id="g62"
           clip-path="url(#clipPath66)">
          <path
             d="m 7875.8,9992.3 c 0,0 -798.26,533.8 -895.68,761.1 -97.41,227.3 -156.94,35.2 -181.3,-56.8 -24.35,-92 -119.06,-75.9 -194.83,163.6 -75.76,239.6 -246.24,342.4 -357.18,228.7 -110.95,-113.6 10.82,-435.6 59.53,-495.1 48.71,-59.6 308.48,-367.5 219.18,-420.5 -89.29,-53.1 -266.15,163.4 -346.84,-17.9 -80.7,-181.3 184.48,-385 414.49,-396.8 230.01,-11.8 538.49,-469.1 538.49,-469.1 l 465.42,338.2 278.72,364.6"
             style="fill:url(#linearGradient72);fill-opacity:1;fill-rule:nonzero;stroke:none"
             id="path74" />
        </g>
      </g>
      <g
         id="g76">
        <g
           id="g78"
           clip-path="url(#clipPath82)">
          <path
             d="m 6019.51,10434.1 c 0,0 -379.61,385.6 -467.84,255.7 -88.23,-129.9 382.6,-336.9 467.84,-255.7"
             style="fill:url(#linearGradient88);fill-opacity:1;fill-rule:nonzero;stroke:none"
             id="path90" />
        </g>
      </g>
      <path
         d="m 5906.48,11693.4 -2.7,-0.1 c -36.7,-1.8 -58.66,-10.9 -65.36,-27 -24.66,-59.6 66.4,-212.3 167.79,-345.3 -2.16,24.5 -4,49.3 -5.84,73.8 -13.03,174.6 -27.49,298.6 -93.89,298.6 z m 169.45,-574.6 c -12.67,0 -25.11,5.2 -34.09,15.1 -59.98,66.2 -355.84,404.5 -288.41,567.6 14.73,35.6 52.02,79.1 145.77,83.7 163.34,6.6 179.2,-200 192.95,-383.6 5.93,-79.6 12.08,-162 28.34,-225.4 5.26,-20.5 -4.13,-41.9 -22.77,-51.9 -6.88,-3.7 -14.33,-5.5 -21.79,-5.5"
         style="fill:#4f1107;fill-opacity:1;fill-rule:nonzero;stroke:none"
         id="path92" />
      <path
         d="m 7142.3,9354 c -1.59,2.1 -3.18,4.8 -5.85,7.5 -37.23,52.1 -102.13,137.2 -180.86,218.6 -26.6,28.2 -54.8,55.3 -83.52,80.9 -88.84,78.2 -186.19,138.8 -276.63,143.6 -137.77,6.9 -295.23,93.1 -358.01,195.8 -29.79,48.4 -35.64,94.1 -16.49,136.1 14.36,32.5 28.73,46.8 54.26,46.8 21.81,0 52.13,-11.1 96.82,-30.3 57.45,-24.4 121.82,-52.1 177.15,-19.1 20.74,12.2 35.1,33 39.36,58 13.3,75 -60.64,204.8 -238.85,421.3 l -7.45,9.6 c -42.56,51.6 -148.42,346.3 -62.24,434 26.6,27.7 57.98,37.8 92.03,29.8 73.41,-17.5 147.36,-111.7 188.32,-240.4 65.43,-207 139.37,-247.4 191.5,-247.4 43.09,1.1 77.67,33 91.5,86.2 23.41,87.2 42.03,116.5 50,126.1 7.45,-7 23.41,-26.1 44.69,-75.6 89.9,-211.2 695.28,-634.1 871.36,-753.8 L 7687.04,9821.6 7564.69,9661 Z m 759.12,676.7 c -219.17,146.3 -803.27,564.4 -878.81,741 -26.07,60.1 -68.62,141.5 -135.65,134.1 -72.35,-4.8 -107.45,-102.7 -132.46,-197.4 -2.66,-10.1 -5.85,-15.4 -5.85,-17 -13.3,5.3 -56.92,44.7 -100.54,183 -52.13,163.3 -147.35,276 -254.81,301.6 -65.97,15.9 -129.8,-3.7 -179.27,-54.8 -135.66,-138.8 0,-487.3 56.92,-556.4 l 7.98,-10.1 c 228.74,-277.7 220.76,-341 222.89,-342.1 -14.9,-8.5 -60.12,10.6 -93.09,25 -76.61,32.5 -204.81,87.8 -272.37,-63.3 -30.86,-70.7 -23.41,-147.4 22.34,-221.8 78.73,-128.2 264.39,-231.4 431.96,-240 77.13,-3.7 170.22,-71.2 257.47,-155.3 104.79,-101 200.55,-226.6 245.23,-293.6 l 26.6,-39.4 102.67,74.5 401.64,292 101.07,131.4 144.16,187.3 72.35,94.1 -40.43,27.2"
         style="fill:#4f1107;fill-opacity:1;fill-rule:nonzero;stroke:none"
         id="path94" />
      <path
         d="m 5606.98,10670.6 c -1.71,0 -3.33,-0.1 -4.94,-0.2 -7.87,-0.7 -10.11,-3.2 -12.31,-6.4 -12.89,-19 24.62,-55.2 36.43,-65.8 81.4,-73.3 215.09,-122.2 296.27,-134.4 -109.71,100.7 -249.95,206.8 -315.45,206.8 z m 346.94,-300.5 c -121.52,0 -298.25,82.3 -380.55,152.1 -109.47,92.8 -78.25,166.2 -59.74,193.4 18.51,27.3 46.22,43.3 80.1,46.4 148.51,14.6 407.68,-243.9 458.57,-295.7 l 32.8,-33.2 -33.87,-32.3 c -22.69,-21.7 -56.97,-30.7 -97.31,-30.7"
         style="fill:#4f1107;fill-opacity:1;fill-rule:nonzero;stroke:none"
         id="path96" />
      <path
         d="m 6446.16,10962.4 c 20.16,-31.2 35.7,-60.8 50.46,-92.7 14.49,-31.5 26.74,-64.2 35.54,-97.9 2.96,-11.3 -3.83,-22.9 -15.15,-25.8 -9.55,-2.5 -19.29,1.9 -23.88,10.2 l -0.27,0.4 c -15.33,27.6 -33.46,53.6 -53.43,78.1 -19.68,24.2 -41.97,48.6 -63.51,68.3 -18.91,17.3 -20.23,46.6 -2.95,65.5 17.28,18.9 46.61,20.2 65.53,3 2.92,-2.7 5.58,-5.9 7.66,-9.1"
         style="fill:#ffffff;fill-opacity:1;fill-rule:nonzero;stroke:none"
         id="path98" />
      <path
         d="m 6584.61,10688 c 11.71,-21.9 19.41,-42.8 23.85,-66.2 1.43,-7.6 -3.51,-14.8 -11.03,-16.2 -5.48,-1.1 -10.81,1.2 -13.87,5.5 l -0.58,0.8 c -11.01,15.4 -26.06,30 -40.46,40.5 -12.66,9.2 -15.45,27 -6.23,39.6 9.23,12.7 26.97,15.5 39.63,6.3 3.55,-2.6 6.32,-5.9 8.27,-9.5 l 0.42,-0.8"
         style="fill:#ffffff;fill-opacity:1;fill-rule:nonzero;stroke:none"
         id="path100" />
      <path
         d="m 6356.94,10067.6 c 4.11,-7.9 11.88,-19.1 18.93,-28.3 7.32,-9.6 15.23,-18.9 23.64,-27.8 16.7,-17.9 35.48,-33.9 55.87,-47.7 l 0.84,-0.5 c 12.77,-8.7 16.1,-26.1 7.44,-38.9 -7.44,-10.9 -21.32,-14.9 -33.18,-10.4 -27.35,10.6 -53.66,24.2 -78.08,40.7 -12.3,8.1 -24.15,16.9 -35.61,26.4 -11.75,9.9 -21.96,18.7 -34.12,32.2 l -1.42,1.5 c -17.24,19.1 -15.78,48.5 3.26,65.7 19.03,17.2 48.44,15.8 65.68,-3.2 2.66,-3 4.98,-6.4 6.75,-9.7"
         style="fill:#ffffff;fill-opacity:1;fill-rule:nonzero;stroke:none"
         id="path102" />
      <g
         id="g104">
        <g
           id="g106"
           clip-path="url(#clipPath110)">
          <path
             d="M 12987.8,9609.7 H 11102 c -149.2,268.5 -195.5,610.5 -144.9,1045.3 24.9,212.9 -49.3,422.1 -203.5,574 -131.5,129.6 -304,200.2 -483.5,200.2 -30.2,0 -60.5,-2 -90.9,-6 -106,-14.1 -209.49,-39.1 -305.48,-73.6 -76.61,-15.8 -152.84,-38 -226.89,-65.9 -184.63,-70.4 -330.39,-217.6 -399.86,-403.9 -68.97,-185 -55.41,-389.9 37.14,-562.1 134.38,-251.3 224.67,-485.3 271.87,-708 H 8768 c 0,0 -166.74,271.7 108.24,511.1 28.15,24.5 51.64,48.2 70.81,71.3 168.1,202.7 2.82,361.6 -287.46,640.4 -323.38,310.5 -718.26,569.3 -647.09,802.2 26.83,87.8 86.66,105.7 153.26,105.7 22.89,0 46.58,-2.1 70,-4.2 23.43,-2.1 46.58,-4.3 68.41,-4.3 61.33,0 112.16,16.7 128.87,96.9 64.7,310.6 -465.79,336.4 -976.94,465.8 -549.58,139.2 -475.84,848.6 -308.71,848.6 3.65,0 7.37,-0.3 11.1,-1 20.04,-3.7 39.73,-5.5 58.65,-5.5 145.99,0 245.54,104.4 96.62,219 -167.2,128.6 -545.39,838.9 -206.78,838.9 2.04,0 4.13,0 6.22,0 349.37,-8.7 284.67,-392.5 439.94,-819.5 155.28,-427 842.04,-71 932.61,-588.5 85.51,-488.7 366.16,-891 647.7,-890.9 16.69,0 33.43,1.4 50.09,4.3 297.61,51.7 -25.88,414.1 142.33,517.6 14.94,9.2 29.57,13.5 44.23,13.5 150.31,0 302.83,-451.7 809.8,-699.3 173.3,-84.7 335.2,-105.3 498.8,-105.3 77.8,0 155.9,4.7 235.8,9.3 79.8,4.7 161.5,9.4 246.2,9.4 224.7,0 471.5,-32.8 766,-185.2 538,-278.2 849.9,-1108.4 983.4,-1556.2 52.8,-176.9 77.7,-294.1 77.7,-294.1"
             style="fill:url(#linearGradient116);fill-opacity:1;fill-rule:nonzero;stroke:none"
             id="path118" />
        </g>
      </g>
      <g
         id="g120">
        <g
           id="g122"
           clip-path="url(#clipPath126)">
          <path
             d="m 7715.97,14129.3 c 0,0 -607.95,803.3 -226.44,912.3 317.02,90.5 161.74,-659.9 226.44,-912.3"
             style="fill:url(#linearGradient132);fill-opacity:1;fill-rule:nonzero;stroke:none"
             id="path134" />
        </g>
      </g>
      <path
         d="m 8801.88,9664.7 h 4116.42 c -71.2,287.2 -387.8,1421.1 -1016.8,1746.5 -394.5,204.1 -696.8,186.4 -988.9,169.4 -251.9,-14.6 -489.9,-28.6 -756.8,101.8 -309.05,150.9 -486.92,369.9 -616.88,529.8 -102.26,126.1 -150.48,179.5 -184.21,158.5 -38.03,-23.4 -27.71,-83.5 -6.34,-179.9 19.34,-87.5 41.36,-186.7 -8.7,-261.4 -29.1,-43.6 -78.51,-71.7 -146.72,-83.6 -320.08,-55.3 -661.74,362.1 -761.31,931.3 -40.92,233.5 -220.73,258.8 -428.89,287.9 -195.26,27.4 -416.63,58.4 -501.27,291.3 -47.69,130.9 -75.08,257.4 -99.14,369.1 -59.83,276.3 -97.2,409.4 -290.54,414.2 -53.17,1.2 -71.32,-20.2 -78.84,-41.7 -56.5,-159.5 192.91,-605.3 314.28,-698.6 119.01,-91.6 98.28,-176.9 83.78,-209.3 -36.73,-82.5 -155.96,-125.1 -282.48,-101.9 -11.18,1.9 -39.53,-27.3 -56.93,-107.1 -36.31,-166.2 8.27,-539.4 378.08,-633 105.69,-26.8 212.13,-49.1 313.95,-70.4 410.84,-86 765.61,-160.3 703.21,-460 -32.44,-156.3 -166.06,-144.3 -255.2,-136.3 -103.87,9.4 -145.33,6.4 -166.49,-62.6 -44.47,-145.5 172.82,-336.5 402.89,-538.7 75.94,-66.7 154.67,-135.9 229.64,-207.8 226.2,-217.3 375.71,-360.9 371.64,-525 -2.26,-91.5 -52.1,-176.6 -157.04,-267.9 C 8721,9912.7 8772.77,9731.6 8801.88,9664.7 Z m 4253.82,-110 H 8737.32 l -16.11,26.2 c -66.16,107.7 -126.42,367.8 118.9,581.4 78.84,68.6 117.94,130 119.33,187.6 2.8,115.7 -140.16,253 -338.01,442.9 -73.68,70.8 -151.23,138.9 -225.99,204.6 -268.63,236.2 -500.74,440.1 -435.54,653.4 49.08,161.1 189.26,148.3 281.62,140.1 107.95,-9.8 126.75,-2.7 137.7,49.1 38.03,182.9 -210.09,244.5 -618.14,329.9 -103.21,21.6 -211.27,44.3 -318.46,71.4 -408.8,103.5 -514.17,508.6 -458.42,763.1 34.91,160 118.47,204 184.31,191.9 86.47,-16.1 150.48,12.6 162.08,38.5 7.95,17.7 -11.39,47.3 -50.38,77.3 -137.48,105.7 -429.95,599.4 -350.9,822.6 15.69,44.2 56.82,118.1 185.28,114.8 288.29,-7.2 337.91,-235.9 395.16,-500.9 23.41,-108.2 50.05,-230.8 95.05,-354.7 62.09,-170.8 224.81,-193.5 413.21,-220 219,-30.6 467.22,-65.4 521.9,-377.9 87.54,-500.8 376.78,-886.2 634.14,-841.8 37.48,6.5 62.51,18.7 74.32,36.4 23.85,35.6 7.95,107.2 -7.41,176.4 -22.87,103.1 -51.34,231.3 56.18,297.4 118.9,73.4 210.95,-39.7 327.17,-182.9 123.52,-151.9 292.57,-360 579.79,-500.3 240.9,-117.7 454.9,-105.2 702,-90.8 293,17.1 624.6,36.4 1045.9,-181.5 764.8,-395.6 1076.7,-1827 1089.6,-1887.8 l 14.1,-66.4"
         style="fill:#4f1107;fill-opacity:1;fill-rule:nonzero;stroke:none"
         id="path136" />
      <path
         d="m 7538.72,14994.2 c -9.19,0 -20.36,-1.6 -34.11,-5.5 -41.67,-11.9 -66.48,-33.5 -77.97,-68.1 -41.25,-123.3 84.53,-381.7 216.37,-589 -0.49,46.3 0.11,95.2 0.7,145.2 2.25,189.4 5.37,448.8 -70.09,506.4 -6.82,5.2 -17.13,11 -34.9,11 z M 7716,14074.3 c -16.76,0 -33.2,7.7 -43.83,21.8 -45.27,59.8 -439.3,591.5 -349.88,859.4 23.09,69.1 75.67,117.1 152.14,139 80.88,23 134.91,-0.2 165.95,-23.9 119.33,-91.2 116.27,-347.4 113.32,-595.1 -1.62,-133.6 -3.12,-259.7 15.57,-332.6 6.5,-25.3 -5.8,-51.7 -29.38,-63.1 -7.68,-3.7 -15.79,-5.5 -23.89,-5.5"
         style="fill:#4f1107;fill-opacity:1;fill-rule:nonzero;stroke:none"
         id="path138" />
      <path
         d="m 7642.99,13111.4 c 22.6,-26.5 63.81,-59.1 104.91,-76.5 42.47,-18.1 89.2,-31.6 139.09,-34.3 47.95,-2.2 115.27,-5.5 172.32,-20.8 57.1,-18.6 122.47,-39.9 154.21,-112.2 4.22,-9.6 -0.15,-20.8 -9.76,-25 -6.85,-3 -14.52,-1.7 -19.88,2.8 l -8.26,7 c -29.06,24.5 -83.07,37.7 -132.08,39.1 -52.71,5.7 -97.34,-2.4 -160.47,-3 -61.14,0.7 -125.83,8.7 -184.68,37.1 -59.93,27.9 -111.64,64.7 -150.77,131.1 -15.28,25.9 -6.66,59.2 19.26,74.5 23.16,13.7 52.3,8.2 69.14,-11.6 l 6.97,-8.2"
         style="fill:#ffffff;fill-opacity:1;fill-rule:nonzero;stroke:none"
         id="path140" />
      <path
         d="m 8309.64,12802.6 c 23.11,-19 30.2,-33.1 40.76,-50.6 9.22,-16.8 15.78,-34.1 21.08,-51.3 10.49,-34.5 15.25,-69.1 16.82,-103.1 0.74,-16.4 -11.94,-30.3 -28.34,-31.1 -15.31,-0.7 -28.49,10.6 -30.78,25.4 -4.51,30.1 -11.96,59.2 -23.1,85.4 -5.57,13 -11.96,25.5 -19.49,36.2 -6.3,9.7 -18.63,22.1 -21.09,22.8 -21.64,6.9 -33.66,29.9 -26.84,51.6 6.81,21.6 29.88,33.6 51.52,26.8 5.11,-1.6 9.68,-4.1 13.59,-7.3 l 5.87,-4.8"
         style="fill:#ffffff;fill-opacity:1;fill-rule:nonzero;stroke:none"
         id="path142" />
      <path
         d="m 8229.06,11601.7 c 11.27,-7.7 33.8,-16.5 52.93,-19.9 20.1,-4 41.14,-5.1 62.2,-2.5 42.08,5.3 84.14,23.6 121.63,50.8 10.92,8.1 26.34,5.8 34.43,-5.1 7.41,-10 5.94,-23.9 -2.74,-32.4 -37.78,-36.3 -85.03,-66.5 -139.74,-81.4 -27.32,-7.3 -56.18,-10 -85.05,-8.4 -29.8,2.1 -55.73,6.3 -88.38,21.1 -22.64,10.4 -32.63,37.1 -22.31,59.7 10.32,22.7 37.04,32.7 59.68,22.3 2.31,-1 4.5,-2.2 6.54,-3.6 l 0.81,-0.6"
         style="fill:#ffffff;fill-opacity:1;fill-rule:nonzero;stroke:none"
         id="path144" />
      <path
         d="m 9557.04,12071.7 c 21.61,-48.9 66.23,-106.9 110.6,-154.2 45.88,-48.9 97.99,-93 152.77,-133.9 54.42,-41.5 113.55,-77.2 173.34,-112 60.45,-33.8 122.95,-64 186.55,-92.6 9.4,-4 13.7,-14.8 9.8,-24.1 -3.8,-8.8 -14,-13.1 -23,-10.2 -66.8,23.3 -133.2,48.5 -198.16,77.7 -64.44,30.3 -128.8,61.9 -189.69,100.5 -61.19,37.8 -120.64,79.8 -175.44,128.7 -54.85,51.2 -104.85,99.8 -147.54,176 -14.87,26.6 -5.4,60.1 21.17,75 26.56,14.9 60.14,5.4 75.01,-21.2 0.84,-1.5 1.6,-3 2.29,-4.5 l 2.3,-5.2"
         style="fill:#ffffff;fill-opacity:1;fill-rule:nonzero;stroke:none"
         id="path146" />
      <path
         d="m 10301.2,11557.8 c 45.5,-19.5 97.1,-35.2 147.8,-45.7 51.2,-10.7 103.6,-15.8 156.1,-13.5 7.4,0.4 13.9,-5.2 14.4,-12.7 0.4,-6.8 -4.6,-12.9 -11.2,-14.2 -54.5,-9.8 -110.4,-11.9 -165.8,-7.9 -55.8,4 -109.7,12.3 -165.9,27.8 -18.8,5.3 -29.9,24.8 -24.6,43.6 5.2,18.9 24.7,29.9 43.5,24.7 1.5,-0.4 3,-0.9 4.4,-1.5 l 1.3,-0.6"
         style="fill:#ffffff;fill-opacity:1;fill-rule:nonzero;stroke:none"
         id="path148" />
      <path
         d="m 9583.42,8800.3 c 150.66,523 17.69,1035.7 -253.11,1542.1 -180.25,335.4 -20.89,756.6 335.18,892.3 71,26.9 146.29,48.8 222.4,64.4 -8.42,-2.7 -17.02,-6.1 -24.71,-9 -356.06,-135.7 -515.43,-556.9 -335.17,-892.3 270.79,-506.4 403.76,-1019.1 253.1,-1542.1 L 11166.8,9169 c 3.2,-3.1 7.1,-6.3 10.5,-8.6 L 9583.42,8800.3"
         style="fill:#ed3535;fill-opacity:1;fill-rule:nonzero;stroke:none"
         id="path150" />
      <path
         d="M 11374.8,9215.6 9781.26,8855.4 c 150.94,523.5 17.72,1035.7 -253.54,1542.4 -179.71,335.7 -20.52,756.9 335.32,892.4 102.61,39.1 212.96,66.7 322.96,81.1 410.9,53.8 767.3,-298.4 719.2,-710 -69.3,-592.2 30.1,-1102 469.6,-1445.7"
         style="fill:#fee69a;fill-opacity:1;fill-rule:nonzero;stroke:none"
         id="path152" />
      <path
         d="m 10269.6,11324.4 c -25.4,0 -51,-1.7 -76.6,-5.1 -99.2,-13.2 -195.93,-36.6 -287.35,-69.5 l -18.42,-6.6 c -161.92,-61.7 -285.47,-186.5 -344.41,-344.6 -58.42,-156.7 -47.02,-330.3 31.31,-476 293.66,-549 385.39,-1039.6 279.33,-1496.8 l 1407.34,318 c -348.3,319.6 -481.8,786.6 -407.8,1423.3 21.1,180.6 -41.9,358.2 -172.9,487.3 -111.8,110.1 -258.1,170 -410.5,170 M 9706.28,8785 l 24.5,85.2 c 132.51,460 53.41,937.6 -248.99,1502.9 -92.55,172.2 -106.11,377.1 -37.14,562.1 69.47,186.3 215.23,333.5 399.86,403.9 12.64,4.7 20.2,7.6 27.63,9.9 96.44,34.8 200.46,60 307.06,74.2 211.4,28 420.8,-42.8 574.4,-194.2 154.2,-151.9 228.4,-361.1 203.5,-574 -76.1,-654.1 66.9,-1098.3 450.1,-1398 l 87.2,-68.2 L 9706.28,8785"
         style="fill:#4f1107;fill-opacity:1;fill-rule:nonzero;stroke:none"
         id="path154" />
      <path
         d="m 9533.46,11100.7 c -84.31,-65.9 -150,-154.7 -188.32,-257.5 -58.42,-156.7 -47.01,-330.3 31.31,-476 293.61,-549 385.33,-1039.7 279.28,-1496.9 l 80.22,18.1 c 125.19,454.4 44.26,926.8 -254.16,1484.7 -92.55,172.2 -106.11,377.1 -37.14,562.1 22.2,59.6 52.23,115.1 88.81,165.5 m -24.91,-2371 24.5,85 c 132.5,460.1 53.41,937.6 -248.94,1503 -92.55,172.2 -106.11,377.1 -37.14,562.1 69.47,186.3 215.23,333.5 399.86,403.9 75.26,28.4 152.77,50.9 230.63,66.7 l 26.19,-101.3 -16.42,-5.9 c -161.92,-61.7 -285.47,-186.5 -344.41,-344.6 -58.42,-156.7 -47.02,-330.3 31.31,-476 293.66,-549 385.39,-1039.6 279.33,-1496.8 l 1329.44,300.6 20.4,-19.7 94.6,-68 -109.1,-29.5 -1680.25,-379.5"
         style="fill:#4f1107;fill-opacity:1;fill-rule:nonzero;stroke:none"
         id="path156" />
      <path
         d="m 10775.8,10641.5 c -68.8,-588.3 33,-1041.2 310.3,-1374.9 L 10008.6,9023 c 59.6,436.4 -45.27,900.4 -318.44,1410.8 -64.28,119.8 -73.75,262.7 -25.32,391.6 48.69,130 150.34,232.7 278.92,282 54.78,20.8 111.94,38 171.14,51.4 6.6,1.5 13.3,3 20,4.4 50.4,10.5 99.9,-20.5 113.9,-70 47.6,-168.7 93.5,-418.4 90.5,-748.5 l 103.8,-1 c 2.7,335.3 -41.8,590.2 -90.6,766.6 -9.9,35.7 22.5,67.6 58.5,58.6 82.5,-20.6 159.2,-63.7 222.6,-126.1 107.9,-106.2 159.7,-252.9 142.2,-401.3"
         style="fill:#ff486b;fill-opacity:1;fill-rule:nonzero;stroke:none"
         id="path158" />
      <path
         d="m 9773.06,10667.2 c -4.39,0 -8.68,0.7 -12.83,2 -40.35,13.3 -51.89,88.4 -25.78,167.7 23.44,71.1 69.22,121.4 107.53,121.4 4.39,0 8.68,-0.6 12.83,-2 40.35,-13.3 51.89,-88.3 25.78,-167.6 -23.44,-71.1 -69.22,-121.5 -107.53,-121.5"
         style="fill:#ffcad4;fill-opacity:1;fill-rule:nonzero;stroke:none"
         id="path160" />
      <path
         d="m 9840.96,10537.2 c -5.17,0 -10.2,1.2 -14.75,3.8 -17.16,9.8 -21.02,35.4 -8.62,57.1 9.11,15.9 24.45,25.3 38.76,25.3 5.17,0 10.2,-1.2 14.76,-3.8 17.15,-9.8 21.01,-35.3 8.61,-57 -9.11,-16 -24.45,-25.4 -38.76,-25.4"
         style="fill:#ffcad4;fill-opacity:1;fill-rule:nonzero;stroke:none"
         id="path162" />
      <path
         d="m 9899.39,9961.6 -142.95,60.2 c -8.9,24 -18.23,48.2 -27.99,72.5 20.37,23.2 48.41,54.4 82.89,91.2 33.25,-75.6 62.6,-150.2 88.05,-223.9"
         style="fill:#e8b67c;fill-opacity:1;fill-rule:nonzero;stroke:none"
         id="path164" />
      <path
         d="m 9756.44,10021.8 -66.27,27.9 c 0,0 13.46,16.3 38.28,44.6 9.76,-24.3 19.09,-48.5 27.99,-72.5"
         style="fill:#5f1009;fill-opacity:1;fill-rule:nonzero;stroke:none"
         id="path166" />
      <path
         d="m 10339.1,10423.7 c -1.2,80.1 -5.2,155 -11.4,224.8 32,23.3 64.7,45.8 97.8,67.5 7,-65.3 12.3,-135.3 15.2,-209.9 -33.9,-26.7 -67.9,-54.3 -101.6,-82.4 m 437.1,328 c -5.1,44.7 -16.3,88.2 -33.4,129.6 29.2,10.9 58.4,20.5 87.5,28.6 10.9,-34.6 18.5,-70.2 22.8,-106.5 -20.4,-13.4 -46.5,-30.9 -76.9,-51.7"
         style="fill:#e8b67c;fill-opacity:1;fill-rule:nonzero;stroke:none"
         id="path168" />
      <path
         d="m 10853.1,10803.4 c -4.3,36.3 -11.9,71.9 -22.8,106.5 14.1,3.9 28.1,7.5 42.1,10.7 l 29.2,-85.5 c 0,0 -17.7,-11.3 -48.5,-31.7"
         style="fill:#5f1009;fill-opacity:1;fill-rule:nonzero;stroke:none"
         id="path170" />
      <path
         d="m 9921.94,9952.1 -22.55,9.5 c -25.45,73.7 -54.8,148.3 -88.05,223.9 114.87,122.6 301.46,307.1 516.36,463 6.2,-69.8 10.2,-144.7 11.4,-224.8 -185.4,-155.1 -359.13,-328.4 -417.16,-471.6 m 518.76,554 c -2.9,74.6 -8.2,144.6 -15.2,209.9 102.6,67 209.7,125.1 317.3,165.3 17.1,-41.4 28.3,-84.9 33.4,-129.6 -87.1,-59.5 -209.7,-146.4 -335.5,-245.6"
         style="fill:#e93b57;fill-opacity:1;fill-rule:nonzero;stroke:none"
         id="path172" />
      <g
         id="g174">
        <g
           id="g176"
           clip-path="url(#clipPath180)">
          <path
             d="m 8504.58,10005.7 c -245.17,4.2 -485.1,-45.1 -715.61,-159.3 -173.92,-84.8 -342.61,-207.4 -505.01,-371.9 -170.78,222.1 -344.71,429.6 -519.68,617.1 -66.01,70.2 -75.44,172.9 -22,237.8 114.2,138.3 238.88,259.9 375.09,362.6 143.54,110 300.7,200.1 471.49,269.2 64.96,26.2 144.59,6.3 196.97,-53.4 186.5,-211.6 377.19,-447.4 573.12,-707.2 48.2,-63.9 97.44,-128.9 145.63,-194.9"
             style="fill:url(#linearGradient190);fill-opacity:1;fill-rule:nonzero;stroke:none"
             id="path192" />
        </g>
      </g>
      <path
         d="m 8426.78,10141.4 c -245.43,270.5 -480.9,513.5 -708.31,726.8 -24.26,23 -53.05,38.1 -82.2,45.9 -10.06,-9.5 -17.54,-17.3 -23.98,-24.3 l -27.82,30.8 c 0,0 -93.15,3 -551.79,-368 -458.66,-371.1 -313.43,-505.7 -313.43,-505.7 l 389.45,-433.9 61.57,36.4 c -172.31,182.4 -281.96,356.3 -328.3,436.2 -16.19,28 -42.34,98.4 -21.43,123.1 358.62,422.4 383.85,590.5 552.17,706.2 37.06,25.5 239.38,-87.7 273.98,-116.5 154.47,-128.4 573.87,-484.2 756.84,-711.8 l 26.87,49.9 c 0,0 -1.23,2 -3.62,4.9"
         style="fill:#b4e05b;fill-opacity:1;fill-rule:nonzero;stroke:none"
         id="path194" />
      <path
         d="m 7636.19,10877.8 c -13.61,-0.3 -27.04,-3.2 -39.59,-8.6 -162.79,-71.1 -314.93,-163.4 -452.02,-274.5 -127.58,-101.6 -247.54,-224.1 -356.9,-364 -35.13,-45 -24.51,-118.9 24.25,-168 164.51,-167.1 333.17,-355.6 501.97,-560.9 146.63,148.8 303.7,267.4 467.48,352.8 196.15,103.8 408.15,164.2 631.32,180.2 -234.72,299 -462.17,567.4 -677.01,798.6 -27.41,29.6 -64.17,45.4 -99.5,44.4 z m -328.23,-1534.6 -37.89,46.6 c -179.24,220.6 -358.44,422.3 -532.68,599.2 -86.47,87.2 -100.43,218.9 -32.3,306.2 114.41,146.4 240.2,274.6 373.89,381.2 144.06,116.7 304.26,214 475.8,288.8 86.2,37.4 189.62,13.1 257.76,-60.6 235.92,-253.8 486.79,-552 745.58,-886 l 64.67,-83.5 -105.6,-1 c -243.51,-1.6 -475.47,-60.3 -687.06,-172.3 -169.14,-88.1 -330.91,-214.2 -481.12,-374.7 l -41.05,-43.9"
         style="fill:#4f1107;fill-opacity:1;fill-rule:nonzero;stroke:none"
         id="path196" />
      <g
         id="g198">
        <g
           id="g200"
           clip-path="url(#clipPath204)">
          <path
             d="m 9423.29,9731.1 c -312.23,150.8 -623.41,239.9 -928.3,244.1 -245.18,4.2 -485.11,-45.1 -715.61,-159.3 -28.29,38.8 -57.63,77.6 -86.96,115.3 -176.03,230.5 -353.09,444.2 -534.36,638.1 -19.91,19.9 -33.53,44 -42.95,68.1 -3.15,8.4 -5.24,15.7 -7.34,24.1 -13.62,51.3 -4.19,105.8 28.29,145.6 234.7,283.9 515.49,497.7 846.58,631.8 37.72,15.7 80.68,14.7 119.44,0 28.29,-10.5 55.54,-28.3 77.53,-53.4 206.42,-233.7 418.05,-497.7 637.04,-790 2.1,-3.2 3.14,-5.3 3.14,-5.3 137.25,-184.4 277.65,-379.3 419.09,-584.6 59.73,-87 119.45,-176 180.22,-266.1 2.1,-3.2 3.14,-5.3 4.19,-8.4"
             style="fill:url(#linearGradient214);fill-opacity:1;fill-rule:nonzero;stroke:none"
             id="path216" />
        </g>
      </g>
      <path
         d="m 9451.2,9767.3 c -316.15,142.5 -629.6,223.2 -934.5,219.2 -245.2,-2.4 -483.73,-58 -711.09,-178.3 -171.6,-89.5 -336.94,-216.6 -494.89,-385.4 0,0 330.52,529.4 -236.9,1111.6 l 74.44,70.4 16.1,-60.2 551.24,-623.6 c 0,0 274.85,186.6 650.3,256.4 268.03,50.2 586.94,39.8 893.62,-140.6 62.03,-85.4 124.11,-172.8 187.27,-261.2 2.18,-3.1 3.28,-5.2 4.41,-8.3"
         style="fill:#325b01;fill-opacity:1;fill-rule:nonzero;stroke:none"
         id="path218" />
      <path
         d="m 8821.65,10615.2 c -226.73,286.3 -445.36,544.6 -657.94,772.6 -22.67,24.6 -50.38,41.6 -78.93,51.4 -10.68,-8.8 -18.67,-16.1 -25.57,-22.7 l -25.69,32.6 c 0,0 -92.73,9.3 -575.24,-330.1 -482.52,-339.5 -346.66,-483.6 -346.66,-483.6 l 359.45,-459 63.89,32.2 c -159.69,193.6 -257.43,374.4 -298.29,457.3 -14.28,28.9 -11.53,63.3 8.3,88.8 195.01,250.7 546.76,477.4 722.46,581.6 38.7,22.9 87.39,17.7 119.97,-13.3 145.51,-138.4 540.09,-521.6 707.37,-761 l 30.16,48 c 0,0 -1.1,2.1 -3.28,5.2"
         style="fill:#b4e05b;fill-opacity:1;fill-rule:nonzero;stroke:none"
         id="path220" />
      <path
         d="m 8487.02,10038.4 c 9.71,0.2 19.44,0.4 29.21,0.5 246.74,3.2 511.13,-48.5 787.85,-153.7 -423.59,588.3 -819.64,1081.2 -1178.74,1467 -38.05,41 -93.97,55.5 -139.09,35.7 -311.76,-136.1 -584.01,-350.9 -809.02,-638.4 -20.08,-26.1 -25.94,-63.3 -15.36,-99.3 6.8,-26.5 20.21,-49.5 39.24,-68.3 203.37,-206.2 405.99,-437.8 619,-707.5 207.28,102.6 431.25,157.7 666.91,164 z m 1055.04,-369.5 -112.41,50.6 c -324.08,146.1 -631.03,218.3 -912.26,214.6 -245.41,-3.3 -475.72,-60.3 -687.26,-172.3 l -38.75,-20.5 -27.03,34.5 c -220.32,281.2 -428.78,520.6 -637.31,732 -32.11,31.7 -55.19,71.5 -66.22,114.7 -19.48,66.2 -7.08,138.4 33.67,191.3 236.1,301.6 521.93,527 849.89,670.2 86,37.5 189.57,13 257.76,-60.6 390.3,-419.2 823.45,-963.5 1287.38,-1617.5 l 11,-21 41.54,-116"
         style="fill:#4f1107;fill-opacity:1;fill-rule:nonzero;stroke:none"
         id="path222" />
      <path
         d="m 7988.53,11301.5 c -18.63,28.8 -123.95,-6.2 -235.26,-78.2 -111.3,-72 -186.43,-153.7 -167.81,-182.5 18.63,-28.8 123.95,6.2 235.26,78.2 111.3,72 186.43,153.7 167.81,182.5"
         style="fill:#b4e05b;fill-opacity:1;fill-rule:nonzero;stroke:none"
         id="path224" />
      <path
         d="m 7754.79,11007.6 c -12.32,19 -64.88,7 -117.37,-27 -52.5,-34 -85.07,-76.9 -72.74,-96 12.32,-19.1 64.87,-7 117.37,27 52.5,33.9 85.06,76.9 72.74,96"
         style="fill:#b4e05b;fill-opacity:1;fill-rule:nonzero;stroke:none"
         id="path226" />
      <path
         d="m 6987.6,10413.9 c -13.35,12.1 -58.53,-15.7 -100.93,-62.3 -42.4,-46.5 -65.95,-94.1 -52.61,-106.3 13.35,-12.1 58.54,15.7 100.94,62.3 42.39,46.5 65.94,94.1 52.6,106.3"
         style="fill:#b4e05b;fill-opacity:1;fill-rule:nonzero;stroke:none"
         id="path228" />
      <path
         d="m 14403.6,16959.8 c -63.2,76.8 -150.6,108.8 -255.6,20.5 L 8951.2,12612.2 c -58.89,-49.5 -40.41,-93.1 -5.01,-136.2 35.39,-43.1 74.62,-69.6 134.59,-21.5 L 14374.1,16705 c 107,85.9 92.6,177.9 29.5,254.8"
         style="fill:#c46f35;fill-opacity:1;fill-rule:nonzero;stroke:none"
         id="path230" />
      <path
         d="m 8971.44,12521.5 5248.96,4371.2 c 83.6,70.3 155.7,63.8 213.6,19.8 -8.1,16.2 -18,32.1 -30.4,47.3 -63.2,76.8 -150.6,108.8 -255.6,20.5 L 8951.2,12612.2 c -58.89,-49.5 -40.41,-93.1 -5.02,-136.2 13.48,-16.4 27.53,-30.3 43.04,-38.7 -8.96,27.7 -54.66,53.2 -17.78,84.2"
         style="fill:#efb860;fill-opacity:1;fill-rule:nonzero;stroke:none"
         id="path232" />
      <path
         d="m 14285,16979.9 c -2.1,0.4 -4.1,0.6 -6.3,0.9 -29.2,2.7 -61.9,-11 -97.1,-40.6 l -5196.67,-4368 c -23.82,-20.2 -28.41,-26.3 1.81,-62.9 29.94,-36.6 36.79,-33.6 61.26,-13.9 l 5293.3,4250.5 c 35.9,28.8 55.6,58.2 58.6,87.4 3,28.5 -9.4,59.9 -36.8,93.2 h -0.1 c -25.4,30.9 -51.6,48.9 -78,53.4 z M 9002.52,12378 c -30.65,5.3 -63.43,24.1 -96.81,64.8 -80.14,97.6 -37.8,167.8 11.86,209.6 l 5196.73,4368 c 57.4,48.3 116,70 174.1,64.7 55.9,-5.4 110.3,-37 155.6,-92.1 45.2,-54.9 66,-113.9 60.2,-170.5 -6,-58 -38.8,-111.3 -97.2,-158.3 L 9113.64,12413.6 c -29.53,-23.7 -68.17,-43 -111.12,-35.6"
         style="fill:#4f1107;fill-opacity:1;fill-rule:nonzero;stroke:none"
         id="path234" />
      <path
         d="m 14005,8188.6 c -95.4,-173.9 -341.6,-266.1 -713.5,-266.1 h -50.3 c -32.5,0 -62.9,1 -93.3,3.1 h -12.6 c -102.6,0 -205.3,12.6 -323.7,38.8 l -10.5,2.1 -4.2,2.1 -6.3,1 c -434.8,98.5 -866.5,354.2 -1084.4,497.7 -466.2,306 -597.2,341.6 -626.5,344.7 l -5.3,1.1 -5.2,-1.1 c -87,-7.3 -179.2,-12.5 -273.5,-17.8 -227.3,-10.5 -452.6,-16.7 -667.4,-16.7 -91.1,0 -182.3,1 -271.36,3.1 -231.55,4.2 -451.58,14.7 -652.75,29.3 -154.01,10.5 -309.08,25.2 -461.01,43 -50.28,-1 -430.62,-19.9 -845.53,-298.6 -64.95,-43 -125.73,-84.9 -184.4,-125.7 -280.8,-193.9 -502.92,-346.8 -729.23,-346.8 h -14.67 c -58.67,1 -117.35,13.6 -174.97,35.6 -122.59,48.2 -208.5,173.9 -209.55,305.9 -1.05,153 105.82,286.1 294.42,363.6 h 1.04 c 0,-124.7 9.43,-253.6 27.24,-383.5 l 5.24,-41.9 41.91,-3.1 c 6.29,-1.1 12.57,-1.1 18.86,-1.1 141.45,0 325.85,124.7 520.73,256.7 124.69,84.9 279.75,189.7 444.25,273.5 l 129.92,66 -142.5,31.4 c -88.01,19.9 -168.68,39.8 -244.12,59.7 -127.83,34.6 -245.17,73.4 -348.9,115.3 -93.25,37.7 -165.54,73.3 -224.22,109 l -3.14,2 3.14,5.3 c 50.29,60.8 101.63,118.4 155.07,170.8 42.95,42.9 85.91,83.8 129.92,121.5 120.49,103.7 245.17,187.6 375.09,250.4 213.74,105.8 445.29,160.3 689.42,160.3 l 26.19,-1 c 289.18,-3.2 601.41,-85.9 928.31,-244.1 95.34,-45.1 202.21,-103.8 319.56,-175 l 48.2,-29.4 26.19,51.4 c 94.29,193.8 254.65,482 475.65,755.4 380.4,475.7 809.9,726.1 1241.6,726.1 h 15.7 c 150.9,-2.1 294.4,-30.4 426.5,-84.9 31.4,-11.5 61.8,-25.1 92.2,-40.8 l 119.4,-61.8 -46.1,125.7 c -184.4,504 -652.8,714.6 -1193.4,957.6 -263,119.5 -534.3,241 -809.9,408.6 -1082.31,658 -1557.99,1261.5 -1454.26,1844.1 l 3.14,14.6 -5.24,13.7 c -29.34,75.4 -53.44,154 -72.3,234.7 -198.02,843.4 220.03,1152.5 486.16,1261.5 l 7.33,3.1 6.29,5.2 c 229.46,190.7 549.02,319.6 796.29,319.6 98.48,0 178.09,-21 231.59,-59.7 34.5,-24.1 56.5,-59.7 63.9,-101.7 7.3,-40.8 -3.2,-82.7 -27.3,-117.3 -26.2,-36.7 -61.8,-52.4 -113.1,-52.4 -32.5,0 -67.08,6.3 -99.56,11.5 -6.28,2.1 -19.91,4.2 -36.67,4.2 -132.02,0 -580.45,-107.9 -781.62,-436.9 -253.56,-414.9 1.04,-997.4 738.66,-1683.7 347.89,-322.7 813.09,-524.9 1263.59,-720.9 535.4,-232.6 1088.6,-473.5 1470,-925.1 15.7,-14.7 866.5,-708.3 647.5,-1811.6 -23.1,-116.3 -52.4,-225.3 -90.1,-333.2 -100.6,-291.2 -252.5,-542.7 -449.5,-748.1 l -4.2,-4.1 c -2.1,-1.1 -3.1,-1.1 -5.2,-2.1 -155.1,-48.2 -331.1,-92.2 -520.8,-128.9 -76.4,-14.7 -148.7,-27.3 -218.9,-38.8 l -152,-25.1 135.2,-72.3 c 88,-47.2 177.1,-98.5 265.1,-148.8 48.2,-27.3 97.4,-55.5 145.6,-82.8 50.3,-28.3 506.1,-279.7 961.8,-279.7 h 15.8 c 53.4,1 102.6,6.3 151.9,15.7 l 13.6,2.1 10.5,8.4 c 45,37.7 76.7,76.6 108.9,115.2 300,358.5 -174.6,390.4 -202.9,530.8 -37.7,185.4 0,200.7 19.6,310.6 l -1.1,1 c 131,-78.6 233.7,-158.2 311.2,-241 50.3,-49.2 472.6,-467.3 257.8,-860.2"
         style="fill:#ffc73b;fill-opacity:1;fill-rule:nonzero;stroke:none"
         id="path236" />
      <path
         d="m 12750,11814.1 c 0,0 726.6,-754.3 332.2,-1810 -220.4,-589.9 -1049.9,-897.9 -1337.4,-1053.6 -142.5,-77.2 87.3,-61.8 87.3,-61.8 l 983.3,226.6 c 0,0 505.8,729.9 484.9,1236.5 -20.9,506.7 35.8,811.4 -550.3,1462.3"
         style="fill:#ff9548;fill-opacity:1;fill-rule:nonzero;stroke:none"
         id="path238" />
      <path
         d="m 10928,8903.4 c 0,0 -288.4,-89.2 -610.4,36.2 -75.1,29.3 -732.76,-27 -852.23,63.3 -489.42,369.7 -1148.94,455.6 -1557.2,189.4 0,0 -393.28,115 -624.21,251.7 0,0 -113,-113 -159.26,-184.6 0,0 548.12,-248.8 960.09,-308.9 462.59,165.5 819.56,101.6 1095.43,-138.3 0,0 1069.78,-88.9 1747.78,0 v 91.2"
         style="fill:#ff9548;fill-opacity:1;fill-rule:nonzero;stroke:none"
         id="path240" />
      <path
         d="m 9973.36,9412.8 c 0,0 1028.74,2121.9 2218.24,1089.4 0,0 118.5,872.7 -493.4,1241.7 -586.9,354 -2554.45,933.7 -2964.23,2292.7 l -13.48,125.9 c 0,0 306.25,-936.7 1639.81,-1612.9 1333.6,-676.3 1053.8,-385.4 1515,-762 461.1,-376.5 703.2,-1147.8 360.3,-1866.9 C 11892.7,9201.6 10864.5,8795 9973.36,9412.8"
         style="fill:#ff9548;fill-opacity:1;fill-rule:nonzero;stroke:none"
         id="path242" />
      <path
         d="m 10090,15978 c 0,0 -1050.93,-18.4 -1411.46,-1047.7 0,0 -41.57,-548.1 325.91,-1260.1 0,0 -427.57,705.4 -458.39,1235.4 -30.81,530.1 573.88,837.7 573.88,837.7 0,0 589.23,500.8 1027.66,259.9 l -57.6,-25.2"
         style="fill:#ffff90;fill-opacity:1;fill-rule:nonzero;stroke:none"
         id="path244" />
      <path
         d="m 9877.32,13574.4 c 0,0 382.08,-377.3 1546.98,-915.9 1164.8,-538.6 1479.2,-1148.8 1571.6,-1549.4 l 32.4,69.3 c 0,0 -131.7,627.8 -707.6,1095.9 -575.9,468.1 -2169.4,957.5 -2443.38,1300.1"
         style="fill:#ffff90;fill-opacity:1;fill-rule:nonzero;stroke:none"
         id="path246" />
      <path
         d="m 10296.2,9116 c -116.3,39.8 -225.2,98.5 -327.91,167.7 -265.08,178.1 -933.54,585.7 -1505.61,596.2 -703.04,12.5 -1091.76,-430.7 -1121.09,-465.3 2.09,11.6 18.86,72.3 61.81,153 120.5,103.7 245.18,187.6 375.1,250.4 213.74,105.9 445.29,160.3 689.42,160.3 l 26.19,-1 c 289.17,-3.2 601.41,-85.9 928.3,-244.1 95.34,-45.1 202.22,-103.8 319.56,-175 l 48.2,-29.4 26.2,51.4 c 94.29,193.8 254.63,482 475.63,755.4 380.4,475.7 809.9,726.1 1241.6,726.1 h 15.7 c 150.9,-2.1 294.5,-30.4 426.5,-84.9 l 166.6,-147.7 c 0,0 -614,263 -1048.8,31.4 -434.8,-230.5 -915.8,-803.6 -1188.18,-1376.7 2.1,-63.9 443.18,-361.5 993.28,-375.1 578.3,-109 1470,622.4 1498.3,1393.5 193.8,-603.5 -719.8,-1857.6 -2100.8,-1386.2"
         style="fill:#ffff90;fill-opacity:1;fill-rule:nonzero;stroke:none"
         id="path248" />
      <path
         d="m 6845.01,8352.1 c 0,0 40.07,-164.4 382.13,-22.6 342.05,141.7 983.03,832 1716.45,554.7 l 82.77,-28.5 75.96,17.9 c 0,0 -400.25,321.9 -1017.53,76.9 -617.29,-245.1 -752.88,-659.1 -1239.78,-598.4"
         style="fill:#ffff90;fill-opacity:1;fill-rule:nonzero;stroke:none"
         id="path250" />
      <path
         d="m 13565.7,8940 c 0,0 410.2,-185.2 166.7,-539.6 -332.2,-483.7 -1053.9,-363.7 -1701,43.1 -647.2,406.8 -807.5,517 -1034.7,406.4 l -145.2,-13.6 c 0,0 190.7,189.6 412.5,148 0,0 129.5,66.9 323.6,15 194.1,-51.9 815.6,-518.8 1022.6,-583.5 0,0 -799.7,402.8 -904.1,408.9 l 169.6,-163.9 c 0,0 787.4,-577.8 1314.3,-466.9 527,110.9 660.6,483.8 375.7,746.1"
         style="fill:#ffff90;fill-opacity:1;fill-rule:nonzero;stroke:none"
         id="path252" />
      <path
         d="m 7662.72,9363.4 c 0,0 742.36,340.5 1278.56,130.9 536.2,-209.5 892.08,-457.3 1046.96,-482 0,0 -717.23,559.2 -1373.61,645.4 -656.38,86.2 -951.91,-294.3 -951.91,-294.3"
         style="fill:#ffff90;fill-opacity:1;fill-rule:nonzero;stroke:none"
         id="path254" />
      <path
         d="m 9381.55,15561.4 c 0,0 610.81,-122.1 658.05,13.2 47.3,135.3 -217.8,163.4 -217.8,163.4 0,0 -224.17,-44.6 -440.25,-176.6"
         style="fill:#ff9548;fill-opacity:1;fill-rule:nonzero;stroke:none"
         id="path256" />
      <path
         d="m 9381.55,15115.2 c 0,0 -9.62,44.7 -80.49,64 -70.88,19.2 -240.98,-159.3 -240.98,-159.3 0,0 -17.55,-255.5 93.23,-420.6 0,0 140.04,267.6 192.97,344.8 52.92,77.3 43.65,131 35.27,171.1"
         style="fill:#ff9548;fill-opacity:1;fill-rule:nonzero;stroke:none"
         id="path258" />
      <path
         d="m 13718.5,8757.8 -318.9,220.4 c 0,0 -15.7,-79.7 -6.3,-290.3 0,0 226.2,-131.6 227.1,-240.5 0,0 147.5,83.9 98.1,310.4"
         style="fill:#ff9548;fill-opacity:1;fill-rule:nonzero;stroke:none"
         id="path260" />
      <path
         d="m 9587.65,12742.4 c 0,0 -120.18,594.7 283.96,885.1 l -102.15,82.5 -554.41,-630.8 372.6,-336.8"
         style="fill:#ff9548;fill-opacity:1;fill-rule:nonzero;stroke:none"
         id="path262" />
      <path
         d="m 13979.1,8210.8 c -65.9,-120.7 -204.3,-183.5 -363.8,-214.9 30.8,20.2 60.1,42 87.2,67 188.3,169.7 289.9,346.9 302.7,526.1 37.8,-118.6 44.1,-250.5 -26.1,-378.2 z m -781.4,-236.7 h -5.4 c -13.8,0 -27.1,1.1 -42,2.1 -181.4,12.3 -320.8,38.8 -325,39.9 v -2.1 c -439.9,102.7 -886.3,372.9 -1070.9,493.1 -330.8,217.1 -560.1,341.5 -649.5,351.1 v 4.3 c -51.1,-4.3 -104.8,-7.5 -156.9,-10.7 52.1,41 127.7,79.8 221.8,79.8 182.5,0 471.9,-188.8 752.7,-370.8 45.8,-29.2 91,-59 136.2,-87.2 201.1,-128.7 637.9,-338.3 1031,-338.3 40.9,0 81.4,2.1 121.3,7.4 0,0 6.3,0 17,2.2 14.3,2.1 29.2,4.2 43.6,7.4 v -1.1 c 30.9,6.4 70.2,16.5 115.4,34.6 30.4,11.2 62.8,26.1 96.3,44.7 75.6,43.1 142.6,102.7 199,182.5 38.8,56.3 69.1,114.3 89.4,171.8 2.1,4.2 4.2,10.6 5.3,20.2 8.5,43.6 9,137.2 -89.4,241 -10.1,11.2 -21.8,23.9 -33.5,38.3 -80.3,87.2 -155.9,121.8 -205.3,135.1 v 202.7 c 0,0 1,-1.1 3.1,-2.1 26.1,-18.1 245.3,-161.8 304.9,-243.2 84,-98.4 132.9,-201 143.6,-304.8 17,-176.1 -72.4,-355.3 -268.1,-531.4 -71.3,-63.8 -153.2,-108 -242.1,-134.1 -3.2,-1 -81.9,-32.4 -192.5,-32.4 z m -788.4,-1295.3 c -604.3,-563.4 -1407.1,-873.5 -2260.9,-873.5 -1482.55,0 -2731.6,944.7 -3090.68,2223 219.17,21.3 432.49,166.6 700.07,351.1 59.58,41 122.35,84.1 188.31,127.7 406.42,271.3 781.46,289.4 811.25,290.5 152.67,-19.2 309.07,-32.5 462.81,-43.1 203.21,-14.4 423.44,-25 655.91,-29.3 88.84,-2.1 181.43,-3.2 272.33,-3.2 214.9,0 441,5.4 670.8,17.1 92.1,4.7 184.1,10.1 273.5,17.5 v -1.1 c 5.3,0 112.8,-13.3 604.3,-336.2 191,-124.4 647.4,-399.5 1108.6,-505.9 2.1,-1 7.5,-2.1 16,-3.1 110.6,-25.6 221.8,-39.9 328.7,-39.9 h 5.3 c 11.2,0 22.9,-1.1 34.6,-2.2 -153.2,-443.1 -417,-849.5 -780.9,-1189.4 z M 10148.4,5532.9 c -684.07,0 -1270.83,238.9 -1440.52,479.8 435.68,-198.9 924.02,-312.2 1440.52,-312.2 504.9,0 993.2,105.8 1435.3,305.8 -175.6,-238.8 -756.5,-473.4 -1435.3,-473.4 z M 6921.54,8137.4 c -29.26,5.3 -58.52,13.8 -88.31,25 -102.67,39.9 -175.01,145.8 -176.08,258 -0.53,113.3 67.56,210.7 193.1,280.9 2.13,-78.7 4.26,-183 21.82,-271.8 -45.75,18.6 -86.18,88.8 -96.82,150 -4.79,-20.8 -7.45,-41 -7.45,-60.1 0,-92.1 52.14,-165 117.03,-194.2 51.07,-30.3 100.55,-22.4 111.19,-25.6 153.73,1.1 331.94,121.9 547.92,268.7 171.82,116 366.52,247.9 576.12,333 150.01,60.7 291.51,88.8 426.63,88.8 228.22,-1 372.91,-47.8 488.88,-115.9 -90.97,8 -183,16.5 -273.43,28.2 l -3.19,-27.2 v 27.2 c -17.56,-1.1 -421.86,-8.5 -870.3,-307 -67.03,-45.2 -129.8,-88.3 -190.97,-129.8 -268.11,-185.6 -468.13,-322.9 -666.02,-335.6 -70.22,-9.1 -110.12,7.4 -110.12,7.4 z m 2569.92,910.7 c -317.58,186.2 -591.01,347.9 -963.92,347.9 -360.14,0 -649.53,-157.4 -835.19,-296.8 -85.64,23.9 -165.44,50.5 -239.91,77.7 208.53,181.4 581.97,428.2 1075.1,428.2 429.83,0 741.03,-181.9 1075.11,-379.3 263.85,-154.8 536.25,-311.7 894.75,-392.6 -207.5,-5.3 -411.7,-7.4 -607.5,-3.2 -141.5,68.1 -271.3,143.7 -398.44,218.1 z M 7934.4,8930.6 c -162.25,-83 -313.33,-183.6 -449.51,-276.7 -203.21,-137.2 -380.35,-256.4 -505.9,-247.3 -16.49,123.9 -26.07,249.5 -26.07,377.1 v 551.2 c 37.77,-38.9 85.65,-75 144.7,-111.8 61.71,-37.7 138.31,-75.5 235.66,-114.3 105.86,-43.1 225.02,-83 355.35,-117.6 72.88,-20.7 155.87,-41 245.77,-60.6 z m -109.59,134 c 171.83,114.4 412.81,226.6 702.73,226.6 344.72,0 606.97,-154.2 913.92,-334.6 68.09,-39.9 137.25,-80.3 208.53,-120.2 -141.5,5.3 -277.69,12.2 -406.95,21.8 -158,125 -335.14,234.6 -696.35,236.7 -145.76,2.2 -293.64,-29.2 -450.57,-90.9 -101.61,19.7 -190.98,39.9 -271.31,60.6 z m -99.47,657.5 c 28.73,17.1 57.45,32.5 86.71,46.8 214.91,107 448.44,158 691.55,153.8 281.94,-4.3 586.76,-83.5 907.53,-238.9 177.68,-84.6 368.66,-197.9 565.49,-337.2 265.98,-187.8 578.28,-283 895.78,-283 242.1,0 486.3,55.8 713.4,168.6 518.7,259.1 839.5,758.6 858.1,1336.3 36.7,1134.7 -793.7,1468.7 -1344.3,1689.5 l -83.5,33.5 c -337.3,137.3 -2036.92,885.7 -2344.93,2191.2 -120.22,513.3 -12.76,820.3 163.32,1007 -228.22,-383.5 -317.59,-1086.8 808.05,-2133.2 391.56,-364.9 886.26,-580.9 1374.56,-793.1 903.3,-393.2 1615.6,-702.2 1673.1,-1886.4 -19.7,-217.6 -63.9,-418.1 -130.9,-594.7 -220.8,-600.6 -652.7,-901.2 -981.5,-1048 -52.6,12.8 -100.5,19.7 -143.6,17 -49.5,-3.2 -96.3,-14.9 -141.5,-33.5 -43.1,11.2 -84.1,18.6 -122.9,18.6 -160.1,0 -273.4,-81.9 -338.3,-145.7 -507,35.6 -847.44,233.5 -1180.45,428.7 -342.05,201.1 -664.42,390.5 -1123.51,390.5 -561.75,0 -975.63,-297.4 -1184.68,-491 -51.61,20.7 -96.82,41.5 -135.13,62.8 4.79,5.8 9.58,11.7 14.9,17 31.39,37.2 64.37,73.9 98.95,108.5 128.2,129.8 263.85,235.1 403.76,314.9 z m 3858.36,667.1 c -142,4.3 -291,-44.1 -432.5,-139.4 -83,16.5 -169.7,26.1 -264.9,26.1 -28.2,0 -56.9,-3.2 -85.1,-6.4 219.1,211.7 480.9,366 777.7,359.6 228.2,-5.3 431.4,-88.3 603.2,-245.2 -3.1,-90.4 -11.7,-184.6 -25,-287.3 -161.7,188.9 -353.2,287.3 -573.4,292.6 z m -47.9,-281.9 c -76.6,37.7 -156.4,75.5 -245.2,105.8 97.3,49 194.7,73.4 291,71.3 214.9,-4.2 400.5,-115.4 553.2,-328.2 -1.1,-7.5 -2.7,-13.3 -3.7,-20.8 -270.8,16.5 -436.2,95.3 -595.3,171.9 z m -60.6,-311.2 c -174,76.6 -355.4,154.8 -649,154.8 h -5.9 c -133.5,-1.1 -247.4,-30.3 -342.6,-70.2 61.7,89.3 129.8,177.1 203.2,261.2 67.1,18.6 136.2,29.2 205.4,29.2 96.3,0 181.9,-8.5 263.8,-27.1 129.8,-29.3 231.4,-78.8 339.4,-130.9 166.5,-80.8 338.4,-162.8 621.4,-181.4 -43.1,-65.9 -92.1,-126.6 -145.8,-185.6 -206.4,26.6 -350.6,89.3 -489.9,150 z m 54.2,-474.5 c -397.9,-195.3 -851.7,-202.2 -1242.7,-30.4 132,154.8 468.2,362.3 1242.7,30.4 z m -1338.9,16.4 c -5.4,3.2 -11.7,6.4 -17.1,9.6 59.1,121.3 120.8,238.9 186.8,349 98.4,69.2 255.8,148.4 460.1,149.5 274.5,-1.1 439.9,-69.7 612.8,-146.3 127.7,-55.9 260.7,-113.3 441,-145.8 -69.1,-62.7 -145.7,-118.6 -228.2,-168.6 -921.3,421.3 -1311.8,138.3 -1455.4,-47.4 z m 1349.6,1669.4 h 18.6 c 218.1,-3.2 413.8,-62.8 585.7,-174 22.3,-94.1 35.6,-197.9 38.8,-313.3 -176.1,136.2 -378.2,208.5 -602.2,213.8 -588.9,10.1 -1033.1,-522.9 -1306,-973.5 -67,-113.3 -130.8,-233.5 -191.5,-358.5 -15.9,10.6 -31.4,20.2 -46.2,30.3 -56.43,39.9 -112.82,77.7 -168.67,113.3 193.07,394.2 798.47,1461.9 1671.47,1461.9 z m -560.7,995.3 c -260.7,118.1 -531.5,239.9 -803.8,405.3 -944.8,574 -1418.25,1101.2 -1442.72,1604.4 541.01,-1078.3 1937.42,-1693.2 2243.32,-1817.2 l 85.1,-34.5 c 554.3,-221.9 1312.4,-526.7 1277.8,-1588.5 -3.7,-139.4 -28.2,-273.4 -68.1,-400 129.2,1190 -504.9,1476.2 -1291.6,1830.5 z m -1832.65,3693.4 c 340.46,286.7 809.11,378.2 970.35,261.7 22.8,-15.9 37.7,-39.9 43,-67 4.3,-28.2 -2.1,-55.3 -19.1,-78.7 -26.1,-36.7 -60.6,-37.8 -148.43,-21.8 -11.7,7.4 -26.6,9.5 -39.89,6.3 -168.64,14.4 -635.17,-119.7 -844.76,-461.2 -268.12,-438.8 -9.05,-1044.8 748.47,-1749.6 353.71,-329.3 824.51,-533.6 1277.81,-730.4 533.5,-231.4 1084.6,-472.4 1458.6,-918.7 284.1,-338.3 434.1,-761.8 458,-1298.5 1.1,-1.6 26.1,-251.1 -128.7,-678.8 -136.2,-375.1 -385.7,-698 -741,-959.7 -126.6,-23.9 -243.1,-44.1 -347.9,-59.6 -39.9,18.7 -75.6,34.6 -110.1,47.9 330.3,169.7 722.9,484.1 934.6,1057.6 70.2,185.1 116.5,394.7 137.3,628.2 -60.7,1257.6 -836.8,1594.9 -1745.4,1989 -470.3,205.4 -956.5,418.2 -1335.78,770.9 -1207.03,1122.4 -959.66,1810.8 -705.38,2120.9 39.89,48.9 87.24,96.3 138.31,141.5 z m 829.87,-130.3 c -46.29,-36.7 -188.32,-13.3 -315.46,5.3 -34.58,5.3 -69.16,10.6 -104.8,16 122.89,58.5 243.11,89.8 321.84,100.5 44.15,-14.9 116.5,-46.3 113.31,-87.3 -1.07,-20.7 -8.51,-29.2 -14.89,-34.5 z m -660.17,-438.9 c 9.57,-1.1 13.83,-3.2 18.08,-7.5 40.96,-44.6 37.77,-57.4 -38.83,-154.8 -45.22,-57.4 -101.6,-129.8 -148.95,-233.5 -25.01,85.7 -37.77,168.6 -35.65,245.8 96.29,109 170.77,148.9 205.35,150 z m 3905.15,-4950.5 c -22.9,-114.3 -51.6,-221.3 -88.3,-327.1 -98.4,-280.4 -243.6,-523.5 -433.6,-723 -90.9,-28.2 -189.3,-54.2 -292,-78.2 285.7,247.9 492.1,541.6 612.8,874.6 164.4,454.8 136.2,716.5 135.1,724 -13.8,299 -67,562.8 -158.5,800.6 179.3,-302.7 330.4,-736.8 224.5,-1270.9 z m 37.8,-1921.4 c -395.3,-85.1 -923,165.4 -1144.3,306.9 -45.2,28.2 -89.9,57.5 -135.1,86.7 -174,113.3 -342.6,221.3 -494.7,295.8 79.8,-7.4 182.4,-41 315.4,-104.8 l 12.8,-5.3 c 123.4,-59.6 260.7,-138.3 392.6,-213.9 49.5,-28.2 97.9,-56.4 145.7,-84 193.1,-107.5 557.5,-260.7 907.6,-281.4 z m -854.9,373.9 c -48.4,26.1 -97.9,54.3 -145.8,82.5 -88.3,50.5 -178.2,101.6 -265.9,147.9 71.2,12.8 143.1,25 220.7,39.9 193.1,36.7 370.8,81.9 531.5,130.8 274.5,86.2 467,182.5 581.4,288.4 1.1,-1.1 7.4,-5.4 17.6,-11.7 v -523 c 0,-144.1 -11.2,-286.7 -32.5,-427.1 -345.8,7.4 -728.3,169.7 -907,272.3 z M 13344,9554 c 0,-120.7 -161.2,-247.3 -447.4,-358.5 128.2,163.8 231.9,351.1 310.1,557.5 71.3,-52.2 137.3,-121.3 137.3,-199 z m 98.4,-937.8 c 43.1,-37.8 91.5,-95.2 125,-178.2 -22.4,-25 -44.2,-47.9 -69.2,-68.1 -26,-5.3 -53.7,-8 -80.8,-10.1 12.7,84.5 20.2,170.7 25,256.4 z m 6.4,167.5 v 124 c 51.6,-22.3 130.8,-76.6 210.6,-206.4 18.1,-29.3 19.2,-66 6.4,-97.4 -8.5,-22.3 -18.6,-43.1 -30.3,-65.4 -58.5,108 -135.1,171.8 -187.8,206.4 0,12.8 1.1,25.5 1.1,38.8 z m 355.3,297.9 -1.1,-1 c -83,88.8 -189.3,172.9 -320.7,251.1 -11.2,10.6 -22.9,19.1 -33.5,27.6 V 9554 c 0,107 -69.2,208.6 -204.3,300.6 31.4,97.3 59,196.3 79.8,300.6 219.1,1108.6 -601.7,1808.6 -655.9,1853.9 -390,461.7 -949.1,705.9 -1492.2,942.6 -446.3,194.2 -907,394.2 -1248.52,711.8 -360.68,335.1 -602.72,643.1 -725.07,915.5 44.68,154.2 115.96,246.3 175.01,320.7 68.09,85.7 138.84,176.1 34.05,291 -25,27.2 -60.65,44.2 -96.29,41 -58.51,-1.1 -121.28,-37.8 -176.08,-81.9 14.9,45.2 32.45,89.3 59.05,131.4 52.13,85.6 123.41,155.8 201.08,212.2 73.42,1.1 160.13,-12.2 246.3,-26 83.52,-12.3 165.44,-25 235.66,-25 64.9,0 121.31,10.6 160.11,42 32.5,25 51.6,62.8 54.8,108 2.1,31.4 -5.3,58.5 -20.2,84.5 54.8,1.1 109,17.1 151.1,74.5 32.4,45.2 45.2,101.6 35.6,157 -9.6,54.7 -39.9,102.6 -85.1,135.6 -218.64,158 -736.24,32.4 -1091.6,-263.3 -285.13,-116 -722.94,-442.1 -517.59,-1320.9 19.68,-83 45.21,-163.8 74.47,-242 -109.05,-607 373.97,-1228.3 1478.32,-1899.7 278.8,-168.6 551.1,-291.5 815,-410.7 542.6,-244.1 988.4,-445.2 1165,-927.2 -163.3,83.6 -344.7,128.8 -540.5,132 h -21.8 c -906.5,0 -1516.1,-1016.6 -1759.21,-1510.8 -111.18,67 -220.23,127.6 -323.97,176.6 -334.08,161.7 -653.78,245.2 -950.09,249.5 -223.43,3.7 -436.21,-36.2 -636.23,-118.1 -35.11,-13.9 -69.69,-29.3 -103.73,-46.3 -26.6,-12.8 -52.66,-26.6 -78.73,-41.5 -152.67,-85.6 -301.1,-199.5 -439.94,-341 -38.3,-37.7 -75.54,-77.7 -110.65,-119.1 -7.44,-8 -14.36,-16.5 -21.27,-24.5 -80.33,55.8 -162.26,131.9 -162.26,217 0,8.5 1.07,17.6 2.67,26.1 -26.6,28.2 -54.8,55.3 -83.52,80.9 -15.43,-34.1 -23.41,-68.7 -23.94,-103.8 v -739.9 c -189.91,-88.9 -297.37,-231.5 -295.24,-398 0.53,-156.4 98.41,-298.4 242.57,-354.2 52.67,-20.8 102.67,-30.4 153.21,-35.7 226.09,-838.9 821.35,-1541.1 1614.51,-1948.6 85.12,-351.1 810.19,-652.7 1585.22,-652.7 773.5,0 1497.5,300.6 1584.2,649.5 271.3,139.4 523,314.4 748,524 384.6,360.2 663.3,792.1 819.7,1264.5 h 4.8 c 295.8,0 636.2,56.4 766.1,294.2 244.1,447.4 -246.3,902.2 -267.1,921.3"
         style="fill:#4f1107;fill-opacity:1;fill-rule:nonzero;stroke:none"
         id="path264" />
      <path
         d="m 9898.23,9962.4 18.35,74.5 c 19.2,78 -13.99,159.4 -82.19,201.7 l -65.22,40.5 -28.96,71.1 c -30.29,74.4 -105.01,120.7 -185.07,114.9 l -76.56,-5.6 -65.23,40.5 c -68.19,42.4 -155.9,36 -217.25,-15.8 l -58.66,-49.5 -76.56,-5.6 c -80.06,-5.8 -147.26,-62.6 -166.46,-140.5 l -18.35,-74.6 -58.66,-49.5 c -61.34,-51.8 -82.37,-137.1 -52.08,-211.5 l 28.97,-71.1 -18.35,-74.5 c -19.2,-78 13.99,-159.4 82.19,-201.7 l 65.22,-40.5 28.96,-71.1 c 30.29,-74.4 105.01,-120.8 185.07,-114.9 l 76.57,5.6 65.21,-40.5 c 68.2,-42.4 155.91,-36 217.26,15.8 l 58.66,49.5 76.56,5.6 c 80.06,5.8 147.26,62.6 166.46,140.5 l 18.35,74.5 58.66,49.6 c 61.34,51.7 82.37,137.1 52.08,211.5 l -28.97,71.1"
         style="fill:#ffffff;fill-opacity:1;fill-rule:nonzero;stroke:none"
         id="path266" />
      <path
         d="m 9903.5,10096 -17.3,-70 17.29,-42.3 13.1,53.2 c 9.65,39.2 5.95,79.3 -8.71,114.9 1.5,-18.4 0.21,-37.2 -4.38,-55.8"
         style="fill:#e0c3c5;fill-opacity:1;fill-rule:nonzero;stroke:none"
         id="path268" />
      <path
         d="m 8923.54,10262.2 17.3,70 c 6.3,25.5 19.55,47.2 35.41,66.7 -39.39,-25 -70.13,-62.8 -81.83,-110.3 l -15.8,-64.2 44.92,37.8"
         style="fill:#e0c3c5;fill-opacity:1;fill-rule:nonzero;stroke:none"
         id="path270" />
      <path
         d="m 9927.19,9891.3 -2.05,5 c 0.73,-51.1 -19.93,-101.3 -60.76,-135.7 l -55.26,-46.5 -17.3,-70 c -18.09,-73.2 -81.4,-126.5 -156.81,-132 l -89.29,-4 -53.95,-48.9 c -57.79,-48.7 -124.51,-53.5 -188.75,-13.8 l -61.41,38 -72.12,-5.2 c -75.4,-5.5 -145.76,38 -174.28,107.9 l -27.26,66.7 -61.43,38 c -64.22,39.8 -95.46,116.3 -77.37,189.5 l -25.19,77.8 -17.86,64.7 c -23.33,57.1 20.25,114.5 55.97,162.5 l -24.66,-20.8 c -61.34,-51.8 -82.37,-137.1 -52.07,-211.5 l 28.96,-71.1 -18.35,-74.5 c -19.2,-78 13.99,-159.4 82.19,-201.7 l 65.21,-40.5 28.97,-71.1 c 30.29,-74.4 105.01,-120.8 185.07,-114.9 l 76.57,5.6 65.21,-40.5 c 68.2,-42.4 155.91,-36 217.26,15.8 l 58.66,49.5 76.56,5.6 c 80.06,5.8 147.27,62.6 166.46,140.5 l 18.35,74.5 58.66,49.6 c 61.34,51.7 82.37,137.1 52.07,211.5"
         style="fill:#e0c3c5;fill-opacity:1;fill-rule:nonzero;stroke:none"
         id="path272" />
      <path
         d="m 9301.65,9566.2 c -7.42,0 -14.89,0.4 -22.47,1.3 -196.6,22.1 -281.93,187.8 -279.33,342.2 2.87,169.5 113.84,349.6 320.36,365.7 160.55,11.9 255.5,-65.1 307.99,-132.3 91.06,-116.6 108.71,-274 79.04,-362.8 -9.11,-27.4 -38.83,-42.3 -66.25,-33.1 -27.47,9.1 -42.26,38.8 -33.1,66.2 20.82,62.5 2.96,181.7 -62.26,265.1 -53.42,68.4 -126.22,99.4 -217.23,92.4 -150.87,-11.7 -221.77,-144.5 -223.77,-263 -1.69,-99.2 46.09,-220.6 186.22,-236.3 82.06,-9.5 120.84,86.9 130.1,145.3 11.05,69.4 -5.58,147.1 -52.54,156.8 -10.85,2.3 -15.04,-0.5 -18.67,-3.3 -25.99,-20.5 -40.22,-93.6 -41.7,-136.7 -0.92,-28.9 -26.71,-50.5 -54.03,-50.6 -28.85,0.9 -51.56,25.1 -50.69,53.9 0.82,25.9 8.44,157.9 81.44,215.5 29.83,23.6 66.3,31.8 104.78,23.8 101.91,-21 157.36,-134.5 134.9,-275.9 -22.45,-141.2 -112.44,-234.2 -222.79,-234.2"
         style="fill:#ff486b;fill-opacity:1;fill-rule:nonzero;stroke:none"
         id="path274" />
      <path
         d="m 9227.1,9438.2 79.71,-49.4 c 48.91,-30.4 111.63,-25.9 155.84,11.4 l 71.67,60.4 93.57,6.8 c 57.55,4.2 105.54,44.7 119.36,100.8 l 22.4,91.1 71.73,60.5 c 44.1,37.2 59.14,98.2 37.29,151.7 l -35.4,86.9 22.46,91 c 13.81,56.1 -9.88,114.3 -58.99,144.7 l -79.65,49.5 -35.41,86.8 c -21.79,53.6 -75.15,86.2 -132.75,82.5 l -93.57,-6.8 -79.66,49.4 c -49.06,30.5 -111.68,26 -155.83,-11.4 l -71.68,-60.4 -93.52,-6.9 c -57.6,-4.1 -105.59,-44.7 -119.4,-100.7 l -22.41,-91.1 -71.62,-60.5 c -44.16,-37.3 -59.19,-98.2 -37.4,-151.8 l 35.4,-86.8 -22.46,-91 c -13.76,-56.1 9.93,-114.3 58.99,-144.7 l 79.7,-49.5 35.36,-86.9 c 21.84,-53.5 74.69,-85.7 132.75,-82.4 z M 9377,9263.9 c -43.28,0 -86.71,11.8 -125.44,35.9 l -50.75,31.5 -59.65,-4.4 c -101.96,-8.1 -198.4,51.7 -237.33,147.4 l -22.56,55.3 -50.75,31.6 c -87.74,54.4 -130.15,158.4 -105.44,258.7 l 14.27,58 -22.51,55.3 c -38.98,95.7 -12.12,204.8 66.82,271.4 l 45.58,38.5 14.32,58 c 24.66,100.3 110.51,172.7 213.54,180.2 l 59.55,4.4 45.69,38.5 c 78.89,66.6 190.82,74.8 278.67,20.3 l 50.74,-31.5 59.6,4.3 c 102.73,8.2 198.4,-51.7 237.33,-147.4 l 22.61,-55.3 50.76,-31.5 c 87.68,-54.4 130.09,-158.4 105.39,-258.7 l -14.28,-58.1 22.51,-55.3 c 39.03,-95.6 12.23,-204.7 -66.76,-271.3 l -45.63,-38.5 -14.33,-58.1 C 9824.29,9442.9 9738.5,9370.4 9635.46,9363 l -59.6,-4.4 -45.68,-38.6 c -44.05,-37.1 -98.49,-56.1 -153.18,-56.1"
         style="fill:#4f1107;fill-opacity:1;fill-rule:nonzero;stroke:none"
         id="path276" />
      <path
         d="m 13356.2,18041.8 c -75.3,65 -166.9,81.7 -255.4,-23.2 L 8722.23,12830.8 c -49.62,-58.8 -23.99,-98.7 18.21,-135.1 42.21,-36.5 85.38,-56 136.3,1.6 l 4493.76,5088.5 c 90.8,102.9 61,191 -14.3,256"
         style="fill:#c46f35;fill-opacity:1;fill-rule:nonzero;stroke:none"
         id="path278" />
      <path
         d="m 8757.6,12744.8 4429.5,5199.9 c 70.4,83.4 142.6,89.2 207.2,55.7 -10.8,14.6 -23.2,28.6 -38.1,41.4 -75.3,65 -166.9,81.7 -255.4,-23.2 L 8722.23,12830.8 c -49.62,-58.8 -24,-98.7 18.21,-135.1 16.06,-13.9 32.27,-25.2 48.99,-30.9 -13.54,25.8 -62.91,43.2 -31.83,80"
         style="fill:#efb860;fill-opacity:1;fill-rule:nonzero;stroke:none"
         id="path280" />
      <path
         d="m 13236,18041.6 c -2.2,0 -4.2,-0.1 -6.4,-0.3 -29.2,-2.3 -59.1,-21.3 -88.8,-56.5 L 8762.28,12797 c -20.05,-23.9 -23.53,-30.7 12.48,-61.7 35.71,-30.9 41.95,-26.8 62.73,-3.3 l 4493.71,5088.5 c 30.5,34.5 45,66.8 42.9,96.1 -1.9,28.6 -19.4,57.4 -52.1,85.6 h -0.1 c -30.3,26.1 -59.1,39.4 -85.9,39.4 z m -4423.38,-5433 c -31.11,0 -66.61,13 -106.41,47.4 -95.57,82.6 -65.79,159 -23.94,208.6 l 4378.53,5187.8 c 48.4,57.4 102.4,88.8 160.6,93.4 56,4.2 115.1,-17.8 169,-64.3 53.9,-46.5 84.4,-101.1 88.3,-157.8 4,-58.2 -19.3,-116.3 -68.9,-172.6 L 8916.06,12662.7 c -25.06,-28.4 -59.85,-54.1 -103.44,-54.1"
         style="fill:#4f1107;fill-opacity:1;fill-rule:nonzero;stroke:none"
         id="path282" />
      <path
         d="m 11177.1,9419.6 c -375.9,-301.8 -884,-305.1 -1191.27,-24.7 -20.41,18.3 -39.74,38.7 -58,59.1 -8.6,9.7 -17.19,19.3 -24.7,29 l 1.06,1.1 c -158.98,218 34.38,650.9 439.41,975.3 406,324.5 870.1,419 1048.4,216 l 1.1,1 c 2.1,-3.2 4.3,-5.3 5.3,-7.5 1.1,-1 1.1,-1 2.2,-2.1 1.1,-1.1 1.1,-2.2 2.1,-3.2 4.3,-5.4 8.6,-10.8 12.9,-17.2 24.7,-33.3 46.2,-68.8 63.4,-105.3 180.5,-357.7 62.3,-831.5 -301.9,-1121.5"
         style="fill:#ffffff;fill-opacity:1;fill-rule:nonzero;stroke:none"
         id="path284" />
      <path
         d="m 10669.3,9764.5 c 204.1,189.9 283.8,435.9 178.1,549.4 -105.7,113.6 -356.8,51.8 -560.8,-138 -204.1,-189.9 -283.8,-435.9 -178.1,-549.5 105.7,-113.6 356.8,-51.8 560.8,138.1"
         style="fill:#ffc445;fill-opacity:1;fill-rule:nonzero;stroke:none"
         id="path286" />
      <path
         d="m 11177.1,9419.6 c -375.9,-301.8 -884,-305.1 -1191.27,-24.7 219.17,-62.3 551.07,-48.3 981.87,285.7 373.8,290.1 493,604.8 511.3,860.5 180.5,-357.7 62.3,-831.5 -301.9,-1121.5"
         style="fill:#e0c3c5;fill-opacity:1;fill-rule:nonzero;stroke:none"
         id="path288" />
      <path
         d="m 11110.7,10730.4 c -42.6,0 -89.2,-4.8 -138.8,-14.6 -191.5,-37.5 -402.8,-143.1 -595.3,-297.2 -381.51,-305.6 -575.97,-723.4 -424.73,-912.3 151.43,-189 601.53,-90.3 982.93,215.3 192.5,154.2 341.7,337.4 420.1,516 73.5,167.5 75.2,308.2 4.6,396.3 -51,63.6 -137,96.5 -248.8,96.5 z m -907.6,-1425.7 c -141.8,0 -259.37,44.2 -332.99,136.1 -193.23,241.3 0.51,706.8 440.99,1059.5 205.4,164.6 432.8,277.6 640.5,318.3 219.9,43.2 393.5,0.8 489.7,-119.2 96.1,-120 99.5,-298.9 9.5,-503.9 -85.1,-193.8 -245,-391.1 -450.5,-555.7 -272.7,-218.4 -566.8,-335.1 -797.2,-335.1"
         style="fill:#4f1107;fill-opacity:1;fill-rule:nonzero;stroke:none"
         id="path290" />
      <path
         d="m 10540.8,9135.9 c -249.1,0 -486.5,95.1 -652.78,283.5 -8.29,8.7 -17.04,19.5 -25.69,30.4 l 81.86,65.4 c 6.8,-8.5 13.61,-17.1 21.13,-25 283.18,-320.9 800.68,-333.7 1179.58,-30.3 378.3,303 478.4,810.6 228.3,1155.5 -6.8,9.9 -13.2,17.9 -19.5,25.8 l 80.5,67.2 c 9.6,-12.1 17.6,-22.2 24.8,-33 282.1,-388.7 173.4,-959.2 -248.6,-1297.2 -202.3,-162.1 -440.9,-242.3 -669.6,-242.3"
         style="fill:#4f1107;fill-opacity:1;fill-rule:nonzero;stroke:none"
         id="path292" />
    </g>
  </g>
</svg>
